<svg width="96" height="100" viewBox="0 0 96 100" fill="none" xmlns="http://www.w3.org/2000/svg">
<mask id="path-1-inside-1_5_3656" fill="white">
<path d="M88.4928 83.509H7.50716C3.64329 83.509 0.5 80.4107 0.5 76.6021V70.5587C0.5 70.0084 0.952564 69.5625 1.51064 69.5625H94.4894C95.0476 69.5625 95.5 70.0084 95.5 70.5587V76.6021C95.5 80.4107 92.3565 83.509 88.4928 83.509ZM2.52128 71.5549V76.6021C2.52128 79.3121 4.75782 81.5167 7.50716 81.5167H88.493C91.2424 81.5167 93.4789 79.3121 93.4789 76.6021V71.5549H2.52128Z"/>
</mask>
<path d="M88.4928 83.509H7.50716C3.64329 83.509 0.5 80.4107 0.5 76.6021V70.5587C0.5 70.0084 0.952564 69.5625 1.51064 69.5625H94.4894C95.0476 69.5625 95.5 70.0084 95.5 70.5587V76.6021C95.5 80.4107 92.3565 83.509 88.4928 83.509ZM2.52128 71.5549V76.6021C2.52128 79.3121 4.75782 81.5167 7.50716 81.5167H88.493C91.2424 81.5167 93.4789 79.3121 93.4789 76.6021V71.5549H2.52128Z" fill="#6D95FC"/>
<path d="M2.52128 71.5549V67.5549H-1.47872V71.5549H2.52128ZM93.4789 71.5549H97.4789V67.5549H93.4789V71.5549ZM88.4928 79.509H7.50716V87.509H88.4928V79.509ZM7.50716 79.509C5.7979 79.509 4.5 78.1474 4.5 76.6021H-3.5C-3.5 82.674 1.48867 87.509 7.50716 87.509V79.509ZM4.5 76.6021V70.5587H-3.5V76.6021H4.5ZM4.5 70.5587C4.5 72.2722 3.10665 73.5625 1.51064 73.5625V65.5625C-1.20152 65.5625 -3.5 67.7446 -3.5 70.5587H4.5ZM1.51064 73.5625H94.4894V65.5625H1.51064V73.5625ZM94.4894 73.5625C92.893 73.5625 91.5 72.2717 91.5 70.5587H99.5C99.5 67.7451 97.2023 65.5625 94.4894 65.5625V73.5625ZM91.5 70.5587V76.6021H99.5V70.5587H91.5ZM91.5 76.6021C91.5 78.1474 90.202 79.509 88.4928 79.509V87.509C94.5111 87.509 99.5 82.6741 99.5 76.6021H91.5ZM-1.47872 71.5549V76.6021H6.52128V71.5549H-1.47872ZM-1.47872 76.6021C-1.47872 81.5754 2.6032 85.5167 7.50716 85.5167V77.5167C6.91244 77.5167 6.52128 77.0489 6.52128 76.6021H-1.47872ZM7.50716 85.5167H88.493V77.5167H7.50716V85.5167ZM88.493 85.5167C93.397 85.5167 97.4789 81.5754 97.4789 76.6021H89.4789C89.4789 77.0489 89.0878 77.5167 88.493 77.5167V85.5167ZM97.4789 76.6021V71.5549H89.4789V76.6021H97.4789ZM93.4789 67.5549H2.52128V75.5549H93.4789V67.5549Z" fill="#FBFBFB" mask="url(#path-1-inside-1_5_3656)"/>
<mask id="path-3-inside-2_5_3656" fill="white">
<path d="M94.4894 71.5546H1.51064C0.952564 71.5546 0.5 71.1087 0.5 70.5584V26.0291C0.5 21.4699 4.26301 17.7607 8.8883 17.7607H44.0589C44.617 17.7607 45.0696 18.2068 45.0696 18.7569C45.0696 19.307 44.617 19.7531 44.0589 19.7531H8.8883C5.37754 19.7531 2.52128 22.5685 2.52128 26.0291V69.5622H93.4787V26.0291C93.4787 22.5685 90.6225 19.7531 87.1117 19.7531H64.0685C63.5103 19.7531 63.0579 19.307 63.0579 18.7569C63.0579 18.2068 63.5103 17.7607 64.0685 17.7607H87.1117C91.737 17.7607 95.5 21.4699 95.5 26.0291V70.5584C95.5 71.1087 95.0476 71.5546 94.4894 71.5546Z"/>
</mask>
<path d="M94.4894 71.5546H1.51064C0.952564 71.5546 0.5 71.1087 0.5 70.5584V26.0291C0.5 21.4699 4.26301 17.7607 8.8883 17.7607H44.0589C44.617 17.7607 45.0696 18.2068 45.0696 18.7569C45.0696 19.307 44.617 19.7531 44.0589 19.7531H8.8883C5.37754 19.7531 2.52128 22.5685 2.52128 26.0291V69.5622H93.4787V26.0291C93.4787 22.5685 90.6225 19.7531 87.1117 19.7531H64.0685C63.5103 19.7531 63.0579 19.307 63.0579 18.7569C63.0579 18.2068 63.5103 17.7607 64.0685 17.7607H87.1117C91.737 17.7607 95.5 21.4699 95.5 26.0291V70.5584C95.5 71.1087 95.0476 71.5546 94.4894 71.5546Z" fill="#6D95FC"/>
<path d="M2.52128 69.5622H-1.47872V73.5622H2.52128V69.5622ZM93.4787 69.5622V73.5622H97.4787V69.5622H93.4787ZM94.4894 67.5546H1.51064V75.5546H94.4894V67.5546ZM1.51064 67.5546C3.10665 67.5546 4.5 68.8449 4.5 70.5584H-3.5C-3.5 73.3725 -1.20152 75.5546 1.51064 75.5546V67.5546ZM4.5 70.5584V26.0291H-3.5V70.5584H4.5ZM4.5 26.0291C4.5 23.7332 6.41762 21.7607 8.8883 21.7607V13.7607C2.1084 13.7607 -3.5 19.2067 -3.5 26.0291H4.5ZM8.8883 21.7607H44.0589V13.7607H8.8883V21.7607ZM44.0589 21.7607C42.4624 21.7607 41.0696 20.4701 41.0696 18.7569H49.0696C49.0696 15.9436 46.7716 13.7607 44.0589 13.7607V21.7607ZM41.0696 18.7569C41.0696 17.0437 42.4624 15.7531 44.0589 15.7531V23.7531C46.7716 23.7531 49.0696 21.5703 49.0696 18.7569H41.0696ZM44.0589 15.7531H8.8883V23.7531H44.0589V15.7531ZM8.8883 15.7531C3.22293 15.7531 -1.47872 20.3052 -1.47872 26.0291H6.52128C6.52128 24.8318 7.53215 23.7531 8.8883 23.7531V15.7531ZM-1.47872 26.0291V69.5622H6.52128V26.0291H-1.47872ZM2.52128 73.5622H93.4787V65.5622H2.52128V73.5622ZM97.4787 69.5622V26.0291H89.4787V69.5622H97.4787ZM97.4787 26.0291C97.4787 20.3052 92.7771 15.7531 87.1117 15.7531V23.7531C88.4678 23.7531 89.4787 24.8318 89.4787 26.0291H97.4787ZM87.1117 15.7531H64.0685V23.7531H87.1117V15.7531ZM64.0685 15.7531C65.6654 15.7531 67.0579 17.0443 67.0579 18.7569H59.0579C59.0579 21.5698 61.3551 23.7531 64.0685 23.7531V15.7531ZM67.0579 18.7569C67.0579 20.4696 65.6654 21.7607 64.0685 21.7607V13.7607C61.3551 13.7607 59.0579 15.9441 59.0579 18.7569H67.0579ZM64.0685 21.7607H87.1117V13.7607H64.0685V21.7607ZM87.1117 21.7607C89.5824 21.7607 91.5 23.7332 91.5 26.0291H99.5C99.5 19.2067 93.8916 13.7607 87.1117 13.7607V21.7607ZM91.5 26.0291V70.5584H99.5V26.0291H91.5ZM91.5 70.5584C91.5 68.8454 92.893 67.5546 94.4894 67.5546V75.5546C97.2023 75.5546 99.5 73.3719 99.5 70.5584H91.5Z" fill="#FBFBFB" mask="url(#path-3-inside-2_5_3656)"/>
<mask id="path-5-inside-3_5_3656" fill="white">
<path d="M32.1347 41.3682C31.8706 41.3682 31.6124 41.266 31.42 41.0766C31.157 40.8174 31.0598 40.437 31.1667 40.086L35.4545 25.998C35.5026 25.84 35.5895 25.6963 35.7077 25.5798L59.2906 2.33425C60.8177 0.829023 62.848 0 65.0074 0C67.1671 0 69.1973 0.829023 70.7243 2.33425C72.2516 3.83948 73.0927 5.84081 73.0927 7.96946C73.0927 10.0983 72.2516 12.0994 70.7243 13.6049L47.1419 36.8502C47.0237 36.9667 46.8779 37.0526 46.7176 37.0998L32.4252 41.3262C32.3296 41.3547 32.2318 41.3682 32.1347 41.3682ZM37.3171 26.8108L33.642 38.8864L45.8928 35.2636L69.2953 12.1959C70.4406 11.0668 71.0714 9.56594 71.0714 7.96946C71.0714 6.37297 70.4406 4.87193 69.2953 3.74305C68.15 2.61398 66.6272 1.99236 65.0074 1.99236C63.3877 1.99236 61.8649 2.61418 60.7196 3.74305L37.3171 26.8108Z"/>
</mask>
<path d="M32.1347 41.3682C31.8706 41.3682 31.6124 41.266 31.42 41.0766C31.157 40.8174 31.0598 40.437 31.1667 40.086L35.4545 25.998C35.5026 25.84 35.5895 25.6963 35.7077 25.5798L59.2906 2.33425C60.8177 0.829023 62.848 0 65.0074 0C67.1671 0 69.1973 0.829023 70.7243 2.33425C72.2516 3.83948 73.0927 5.84081 73.0927 7.96946C73.0927 10.0983 72.2516 12.0994 70.7243 13.6049L47.1419 36.8502C47.0237 36.9667 46.8779 37.0526 46.7176 37.0998L32.4252 41.3262C32.3296 41.3547 32.2318 41.3682 32.1347 41.3682ZM37.3171 26.8108L33.642 38.8864L45.8928 35.2636L69.2953 12.1959C70.4406 11.0668 71.0714 9.56594 71.0714 7.96946C71.0714 6.37297 70.4406 4.87193 69.2953 3.74305C68.15 2.61398 66.6272 1.99236 65.0074 1.99236C63.3877 1.99236 61.8649 2.61418 60.7196 3.74305L37.3171 26.8108Z" fill="#6D95FC"/>
<path d="M31.42 41.0766L28.612 43.9253L28.6135 43.9268L31.42 41.0766ZM31.1667 40.086L34.9932 41.2514L34.9934 41.2506L31.1667 40.086ZM35.4545 25.998L31.6279 24.8328L31.6278 24.8333L35.4545 25.998ZM35.7077 25.5798L32.8998 22.731H32.8998L35.7077 25.5798ZM59.2906 2.33425L62.0986 5.18298V5.18298L59.2906 2.33425ZM70.7243 2.33425L67.9164 5.18298L67.9165 5.18317L70.7243 2.33425ZM70.7243 13.6049L67.9164 10.7561L67.9163 10.7561L70.7243 13.6049ZM47.1419 36.8502L49.9499 39.6989L49.9499 39.6989L47.1419 36.8502ZM46.7176 37.0998L45.5873 33.2628L45.5834 33.264L46.7176 37.0998ZM32.4252 41.3262L31.2909 37.4904L31.2828 37.4928L32.4252 41.3262ZM37.3171 26.8108L34.5091 23.9621L33.786 24.6749L33.4904 25.6462L37.3171 26.8108ZM33.642 38.8864L29.8153 37.7217L27.6523 44.8288L34.7763 42.7222L33.642 38.8864ZM45.8928 35.2636L47.0271 39.0994L47.9875 38.8154L48.7007 38.1124L45.8928 35.2636ZM69.2953 12.1959L72.1033 15.0446L72.1035 15.0443L69.2953 12.1959ZM69.2953 3.74305L66.4871 6.59153L66.4873 6.59178L69.2953 3.74305ZM60.7196 3.74305L63.5276 6.59178L60.7196 3.74305ZM32.1347 37.3682C32.8968 37.3682 33.6538 37.6624 34.2265 38.2264L28.6135 43.9268C29.5711 44.8696 30.8443 45.3682 32.1347 45.3682V37.3682ZM34.228 38.2278C35.0166 39.0051 35.3231 40.1683 34.9932 41.2514L27.3403 38.9205C26.7965 40.7057 27.2975 42.6296 28.612 43.9253L34.228 38.2278ZM34.9934 41.2506L39.2812 27.1626L31.6278 24.8333L27.3401 38.9213L34.9934 41.2506ZM39.281 27.1631C39.1346 27.6441 38.8706 28.0787 38.5157 28.4285L32.8998 22.731C32.3084 23.3139 31.8706 24.0358 31.6279 24.8328L39.281 27.1631ZM38.5157 28.4285L62.0986 5.18298L56.4826 -0.514475L32.8998 22.731L38.5157 28.4285ZM62.0986 5.18298C62.8713 4.4213 63.8906 4 65.0074 4V-4C61.8055 -4 58.764 -2.76325 56.4826 -0.514475L62.0986 5.18298ZM65.0074 4C66.1245 4 67.1436 4.4213 67.9164 5.18298L73.5323 -0.514475C71.2509 -2.76325 68.2096 -4 65.0074 -4V4ZM67.9165 5.18317C68.6873 5.94284 69.0927 6.92054 69.0927 7.96946H77.0927C77.0927 4.76109 75.8159 1.73613 73.5321 -0.51466L67.9165 5.18317ZM69.0927 7.96946C69.0927 9.01847 68.6874 9.99611 67.9164 10.7561L73.5323 16.4536C75.8158 14.2027 77.0927 11.1781 77.0927 7.96946H69.0927ZM67.9163 10.7561L44.3339 34.0014L49.9499 39.6989L73.5323 16.4536L67.9163 10.7561ZM44.3339 34.0014C44.6862 33.6542 45.1172 33.4013 45.5873 33.2628L47.848 40.9368C48.6386 40.7039 49.3611 40.2793 49.9499 39.6989L44.3339 34.0014ZM45.5834 33.264L31.2909 37.4904L33.5595 45.162L47.8519 40.9356L45.5834 33.264ZM31.2828 37.4928C31.5714 37.4068 31.8592 37.3682 32.1347 37.3682V45.3682C32.6043 45.3682 33.0878 45.3026 33.5676 45.1596L31.2828 37.4928ZM33.4904 25.6462L29.8153 37.7217L37.4687 40.051L41.1438 27.9755L33.4904 25.6462ZM34.7763 42.7222L47.0271 39.0994L44.7585 31.4278L32.5077 35.0506L34.7763 42.7222ZM48.7007 38.1124L72.1033 15.0446L66.4873 9.34713L43.0848 32.4149L48.7007 38.1124ZM72.1035 15.0443C74.0047 13.17 75.0714 10.6459 75.0714 7.96946H67.0714C67.0714 8.48602 66.8764 8.96354 66.4871 9.34738L72.1035 15.0443ZM75.0714 7.96946C75.0714 5.29326 74.0048 2.76869 72.1033 0.894325L66.4873 6.59178C66.8763 6.97516 67.0714 7.45269 67.0714 7.96946H75.0714ZM72.1035 0.894573C70.2035 -0.978566 67.6694 -2.00764 65.0074 -2.00764V5.99236C65.5851 5.99236 66.0965 6.20653 66.4871 6.59153L72.1035 0.894573ZM65.0074 -2.00764C62.3452 -2.00764 59.8113 -0.978113 57.9116 0.894325L63.5276 6.59178C63.9185 6.20647 64.4302 5.99236 65.0074 5.99236V-2.00764ZM57.9116 0.894325L34.5091 23.9621L40.1251 29.6596L63.5276 6.59178L57.9116 0.894325Z" fill="#6D95FC" mask="url(#path-5-inside-3_5_3656)"/>
<mask id="path-7-inside-4_5_3656" fill="white">
<path d="M39.9954 32.1736C38.8307 32.1736 37.6662 31.7367 36.7795 30.8628C35.0064 29.1149 35.0064 26.271 36.7795 24.5231C37.1741 24.1342 37.814 24.1342 38.2087 24.5231C38.6035 24.9122 38.6035 25.5428 38.2087 25.9319C37.2236 26.903 37.2236 28.4829 38.2087 29.454C39.1939 30.4251 40.7968 30.4251 41.782 29.454C42.1769 29.0651 42.8167 29.0653 43.2112 29.454C43.606 29.8431 43.606 30.4739 43.2112 30.8628C42.3247 31.7367 41.16 32.1736 39.9954 32.1736Z"/>
</mask>
<path d="M39.9954 32.1736C38.8307 32.1736 37.6662 31.7367 36.7795 30.8628C35.0064 29.1149 35.0064 26.271 36.7795 24.5231C37.1741 24.1342 37.814 24.1342 38.2087 24.5231C38.6035 24.9122 38.6035 25.5428 38.2087 25.9319C37.2236 26.903 37.2236 28.4829 38.2087 29.454C39.1939 30.4251 40.7968 30.4251 41.782 29.454C42.1769 29.0651 42.8167 29.0653 43.2112 29.454C43.606 29.8431 43.606 30.4739 43.2112 30.8628C42.3247 31.7367 41.16 32.1736 39.9954 32.1736Z" fill="#6D95FC"/>
<path d="M36.7795 30.8628L33.9714 33.7114L33.9719 33.7119L36.7795 30.8628ZM36.7795 24.5231L33.9715 21.6744L33.9714 21.6746L36.7795 24.5231ZM38.2087 24.5231L41.0167 21.6744L41.016 21.6737L38.2087 24.5231ZM41.782 29.454L38.9754 26.6039L38.974 26.6053L41.782 29.454ZM43.2112 29.454L46.0192 26.6053L46.0185 26.6046L43.2112 29.454ZM43.2112 30.8628L40.404 28.0134L40.4032 28.0141L43.2112 30.8628ZM39.9954 28.1736C39.8266 28.1736 39.6873 28.1125 39.5872 28.0138L33.9719 33.7119C35.6451 35.3609 37.8348 36.1736 39.9954 36.1736V28.1736ZM39.5876 28.0143C39.4037 27.833 39.4037 27.553 39.5876 27.3717L33.9714 21.6746C30.6092 24.9891 30.6092 30.3969 33.9714 33.7114L39.5876 28.0143ZM39.5875 27.3719C38.4243 28.5184 36.5635 28.5173 35.4015 27.3726L41.016 21.6737C39.0645 19.7511 35.9238 19.7501 33.9715 21.6744L39.5875 27.3719ZM35.4008 27.3719C34.2062 26.1943 34.2062 24.2607 35.4008 23.0832L41.0167 28.7807C43.0008 26.8249 43.0008 23.6301 41.0167 21.6744L35.4008 27.3719ZM35.4008 23.0832C32.8262 25.6209 32.8262 29.7651 35.4008 32.3028L41.0167 26.6053C41.6209 27.2008 41.6209 28.1851 41.0167 28.7807L35.4008 23.0832ZM35.4008 32.3028C37.9432 34.8089 42.0475 34.8089 44.5899 32.3028L38.974 26.6053C39.5461 26.0413 40.4446 26.0413 41.0167 26.6053L35.4008 32.3028ZM44.5885 32.3042C43.4264 33.4485 41.5664 33.4487 40.404 32.3035L46.0185 26.6046C44.0669 24.6819 40.9275 24.6817 38.9754 26.6039L44.5885 32.3042ZM40.4032 32.3028C39.209 31.1256 39.208 29.1917 40.404 28.0134L46.0185 33.7123C48.004 31.7562 48.0029 28.5606 46.0192 26.6053L40.4032 32.3028ZM40.4032 28.0141C40.3036 28.1123 40.1644 28.1736 39.9954 28.1736V36.1736C42.1556 36.1736 44.3458 35.361 46.0192 33.7116L40.4032 28.0141Z" fill="#6D95FC" mask="url(#path-7-inside-4_5_3656)"/>
<path d="M55.7637 18.4807C55.7636 18.4808 55.7636 18.4808 55.7635 18.4809L55.7637 18.4807ZM54.3851 17.0404L54.3848 17.0408L54.3851 17.0404ZM54.3597 17.0563L54.3598 17.0564L54.3597 17.0563ZM54.3598 17.0564L54.3643 17.061L54.3598 17.0564Z" fill="#6D95FC" stroke="#6D95FC" stroke-width="4"/>
<mask id="path-10-inside-5_5_3656" fill="white">
<path d="M67.1512 16.7143C66.8927 16.7143 66.6338 16.6171 66.4367 16.4226L56.4318 6.56083C56.0371 6.17173 56.0371 5.54094 56.4318 5.15203C56.8262 4.76312 57.4665 4.76312 57.8609 5.15203L67.8658 15.0138C68.2605 15.4029 68.2605 16.0337 67.8658 16.4226C67.6687 16.6171 67.4098 16.7143 67.1512 16.7143Z"/>
</mask>
<path d="M67.1512 16.7143C66.8927 16.7143 66.6338 16.6171 66.4367 16.4226L56.4318 6.56083C56.0371 6.17173 56.0371 5.54094 56.4318 5.15203C56.8262 4.76312 57.4665 4.76312 57.8609 5.15203L67.8658 15.0138C68.2605 15.4029 68.2605 16.0337 67.8658 16.4226C67.6687 16.6171 67.4098 16.7143 67.1512 16.7143Z" fill="#6D95FC"/>
<path d="M66.4367 16.4226L69.2462 13.5753L69.2447 13.5739L66.4367 16.4226ZM56.4318 6.56083L59.2398 3.71211L59.2398 3.71211L56.4318 6.56083ZM56.4318 5.15203L59.2391 8.00148L59.2405 8.00004L56.4318 5.15203ZM57.8609 5.15203L55.0521 8.00004L55.0529 8.00076L57.8609 5.15203ZM67.8658 15.0138L65.0578 17.8626L67.8658 15.0138ZM67.8658 16.4226L65.0585 13.5732L65.0563 13.5754L67.8658 16.4226ZM67.1512 12.7143C67.8903 12.7143 68.6571 12.9941 69.2462 13.5754L63.6273 19.2699C64.6105 20.2401 65.8951 20.7143 67.1512 20.7143V12.7143ZM69.2447 13.5739L59.2398 3.71211L53.6238 9.40956L63.6287 19.2714L69.2447 13.5739ZM59.2398 3.71211C60.434 4.88922 60.435 6.82321 59.2391 8.00148L53.6246 2.30259C51.6391 4.25868 51.6401 7.45423 53.6238 9.40956L59.2398 3.71211ZM59.2405 8.00004C58.0774 9.14712 56.2153 9.14712 55.0521 8.00004L60.6696 2.30403C58.7177 0.379127 55.5749 0.379127 53.6231 2.30403L59.2405 8.00004ZM55.0529 8.00076L65.0578 17.8626L70.6737 12.1651L60.6688 2.30331L55.0529 8.00076ZM65.0578 17.8626C63.8636 16.6855 63.8625 14.7515 65.0585 13.5732L70.673 19.2721C72.6585 17.316 72.6575 14.1204 70.6737 12.1651L65.0578 17.8626ZM65.0563 13.5754C65.6454 12.9941 66.4122 12.7143 67.1512 12.7143V20.7143C68.4073 20.7143 69.692 20.2401 70.6752 19.2699L65.0563 13.5754Z" fill="#6D95FC" mask="url(#path-10-inside-5_5_3656)"/>
<mask id="path-12-inside-6_5_3656" fill="white">
<path d="M70.2341 61.5924H54.0639C50.7203 61.5924 48.0001 58.9111 48.0001 55.6153C48.0001 52.3196 50.7203 49.6382 54.0639 49.6382H76.2979C78.527 49.6382 80.3405 47.8507 80.3405 45.6535V45.3531C80.3405 43.1559 78.527 41.3683 76.2979 41.3683H32.1347C31.5766 41.3683 31.124 40.9223 31.124 40.3722C31.124 39.8221 31.5766 39.376 32.1347 39.376H76.2979C79.6415 39.376 82.3618 42.0573 82.3618 45.3531V45.6535C82.3618 48.9493 79.6415 51.6306 76.2979 51.6306H54.0639C51.8348 51.6306 50.0213 53.4182 50.0213 55.6153C50.0213 57.8125 51.8348 59.6001 54.0639 59.6001H70.2341C70.7924 59.6001 71.2447 60.046 71.2447 60.5962C71.2447 61.1465 70.7924 61.5924 70.2341 61.5924Z"/>
</mask>
<path d="M70.2341 61.5924H54.0639C50.7203 61.5924 48.0001 58.9111 48.0001 55.6153C48.0001 52.3196 50.7203 49.6382 54.0639 49.6382H76.2979C78.527 49.6382 80.3405 47.8507 80.3405 45.6535V45.3531C80.3405 43.1559 78.527 41.3683 76.2979 41.3683H32.1347C31.5766 41.3683 31.124 40.9223 31.124 40.3722C31.124 39.8221 31.5766 39.376 32.1347 39.376H76.2979C79.6415 39.376 82.3618 42.0573 82.3618 45.3531V45.6535C82.3618 48.9493 79.6415 51.6306 76.2979 51.6306H54.0639C51.8348 51.6306 50.0213 53.4182 50.0213 55.6153C50.0213 57.8125 51.8348 59.6001 54.0639 59.6001H70.2341C70.7924 59.6001 71.2447 60.046 71.2447 60.5962C71.2447 61.1465 70.7924 61.5924 70.2341 61.5924Z" fill="#6D95FC"/>
<path d="M70.2341 57.5924H54.0639V65.5924H70.2341V57.5924ZM54.0639 57.5924C52.8749 57.5924 52.0001 56.6478 52.0001 55.6153H44.0001C44.0001 61.1744 48.5657 65.5924 54.0639 65.5924V57.5924ZM52.0001 55.6153C52.0001 54.5828 52.8749 53.6382 54.0639 53.6382V45.6382C48.5657 45.6382 44.0001 50.0563 44.0001 55.6153H52.0001ZM54.0639 53.6382H76.2979V45.6382H54.0639V53.6382ZM76.2979 53.6382C80.6816 53.6382 84.3405 50.114 84.3405 45.6535H76.3405C76.3405 45.6523 76.3407 45.6474 76.3421 45.6405C76.3435 45.6337 76.3455 45.6279 76.3474 45.6235C76.351 45.6151 76.3525 45.6158 76.3471 45.6211C76.3418 45.6264 76.3349 45.6309 76.3285 45.6336C76.3256 45.6348 76.3225 45.6357 76.3188 45.6365C76.3152 45.6372 76.3087 45.6382 76.2979 45.6382V53.6382ZM84.3405 45.6535V45.3531H76.3405V45.6535H84.3405ZM84.3405 45.3531C84.3405 40.8926 80.6816 37.3683 76.2979 37.3683V45.3683C76.3087 45.3683 76.3152 45.3694 76.3188 45.3701C76.3225 45.3708 76.3256 45.3718 76.3285 45.373C76.3349 45.3757 76.3418 45.3802 76.3471 45.3855C76.3525 45.3908 76.351 45.3914 76.3474 45.3831C76.3455 45.3787 76.3435 45.3728 76.3421 45.3661C76.3407 45.3591 76.3405 45.3543 76.3405 45.3531H84.3405ZM76.2979 37.3683H32.1347V45.3683H76.2979V37.3683ZM32.1347 37.3683C33.7312 37.3683 35.124 38.659 35.124 40.3722H27.124C27.124 43.1855 29.422 45.3683 32.1347 45.3683V37.3683ZM35.124 40.3722C35.124 42.0853 33.7312 43.376 32.1347 43.376V35.376C29.422 35.376 27.124 37.5588 27.124 40.3722H35.124ZM32.1347 43.376H76.2979V35.376H32.1347V43.376ZM76.2979 43.376C77.4869 43.376 78.3618 44.3206 78.3618 45.3531H86.3618C86.3618 39.794 81.7961 35.376 76.2979 35.376V43.376ZM78.3618 45.3531V45.6535H86.3618V45.3531H78.3618ZM78.3618 45.6535C78.3618 46.686 77.4869 47.6306 76.2979 47.6306V55.6306C81.7961 55.6306 86.3618 51.2126 86.3618 45.6535H78.3618ZM76.2979 47.6306H54.0639V55.6306H76.2979V47.6306ZM54.0639 47.6306C49.6802 47.6306 46.0213 51.1549 46.0213 55.6153H54.0213C54.0213 55.6166 54.0211 55.6214 54.0197 55.6284C54.0183 55.6351 54.0163 55.641 54.0144 55.6454C54.0108 55.6537 54.0093 55.653 54.0147 55.6478C54.0201 55.6425 54.0269 55.638 54.0333 55.6353C54.0362 55.6341 54.0393 55.6331 54.0431 55.6323C54.0466 55.6316 54.0532 55.6306 54.0639 55.6306V47.6306ZM46.0213 55.6153C46.0213 60.0758 49.6802 63.6001 54.0639 63.6001V55.6001C54.0532 55.6001 54.0466 55.5991 54.0431 55.5983C54.0393 55.5976 54.0362 55.5966 54.0333 55.5954C54.0269 55.5927 54.0201 55.5882 54.0147 55.5829C54.0093 55.5776 54.0108 55.577 54.0144 55.5853C54.0163 55.5897 54.0183 55.5956 54.0197 55.6023C54.0211 55.6093 54.0213 55.6141 54.0213 55.6153H46.0213ZM54.0639 63.6001H70.2341V55.6001H54.0639V63.6001ZM70.2341 63.6001C68.6378 63.6001 67.2447 62.3092 67.2447 60.5962H75.2447C75.2447 57.7827 72.947 55.6001 70.2341 55.6001V63.6001ZM67.2447 60.5962C67.2447 58.8833 68.6378 57.5924 70.2341 57.5924V65.5924C72.947 65.5924 75.2447 63.4098 75.2447 60.5962H67.2447Z" fill="#6D95FC" mask="url(#path-12-inside-6_5_3656)"/>
<mask id="path-14-inside-7_5_3656" fill="white">
<path d="M31.8298 62.5881H1.51064C0.952564 62.5881 0.5 62.1422 0.5 61.5919C0.5 61.0416 0.952564 60.5957 1.51064 60.5957H31.8298C32.3879 60.5957 32.8404 61.0416 32.8404 61.5919C32.8404 62.1422 32.3879 62.5881 31.8298 62.5881Z"/>
</mask>
<path d="M31.8298 62.5881H1.51064C0.952564 62.5881 0.5 62.1422 0.5 61.5919C0.5 61.0416 0.952564 60.5957 1.51064 60.5957H31.8298C32.3879 60.5957 32.8404 61.0416 32.8404 61.5919C32.8404 62.1422 32.3879 62.5881 31.8298 62.5881Z" fill="#6D95FC"/>
<path d="M31.8298 58.5881H1.51064V66.5881H31.8298V58.5881ZM1.51064 58.5881C3.10665 58.5881 4.5 59.8784 4.5 61.5919H-3.5C-3.5 64.406 -1.20152 66.5881 1.51064 66.5881V58.5881ZM4.5 61.5919C4.5 63.3054 3.10665 64.5957 1.51064 64.5957V56.5957C-1.20152 56.5957 -3.5 58.7778 -3.5 61.5919H4.5ZM1.51064 64.5957H31.8298V56.5957H1.51064V64.5957ZM31.8298 64.5957C30.2338 64.5957 28.8404 63.3054 28.8404 61.5919H36.8404C36.8404 58.7778 34.5419 56.5957 31.8298 56.5957V64.5957ZM28.8404 61.5919C28.8404 59.8784 30.2338 58.5881 31.8298 58.5881V66.5881C34.5419 66.5881 36.8404 64.406 36.8404 61.5919H28.8404Z" fill="#FBFBFB" mask="url(#path-14-inside-7_5_3656)"/>
<mask id="path-16-inside-8_5_3656" fill="white">
<path d="M31.8298 56.6115H1.51064C0.952564 56.6115 0.5 56.1656 0.5 55.6153C0.5 55.065 0.952564 54.6191 1.51064 54.6191H31.8298C32.3879 54.6191 32.8404 55.065 32.8404 55.6153C32.8404 56.1656 32.3879 56.6115 31.8298 56.6115Z"/>
</mask>
<path d="M31.8298 56.6115H1.51064C0.952564 56.6115 0.5 56.1656 0.5 55.6153C0.5 55.065 0.952564 54.6191 1.51064 54.6191H31.8298C32.3879 54.6191 32.8404 55.065 32.8404 55.6153C32.8404 56.1656 32.3879 56.6115 31.8298 56.6115Z" fill="#6D95FC"/>
<path d="M31.8298 52.6115H1.51064V60.6115H31.8298V52.6115ZM1.51064 52.6115C3.10665 52.6115 4.5 53.9018 4.5 55.6153H-3.5C-3.5 58.4294 -1.20152 60.6115 1.51064 60.6115V52.6115ZM4.5 55.6153C4.5 57.3288 3.10665 58.6191 1.51064 58.6191V50.6191C-1.20152 50.6191 -3.5 52.8012 -3.5 55.6153H4.5ZM1.51064 58.6191H31.8298V50.6191H1.51064V58.6191ZM31.8298 58.6191C30.2338 58.6191 28.8404 57.3288 28.8404 55.6153H36.8404C36.8404 52.8012 34.5419 50.6191 31.8298 50.6191V58.6191ZM28.8404 55.6153C28.8404 53.9018 30.2338 52.6115 31.8298 52.6115V60.6115C34.5419 60.6115 36.8404 58.4294 36.8404 55.6153H28.8404Z" fill="#FBFBFB" mask="url(#path-16-inside-8_5_3656)"/>
<mask id="path-18-inside-9_5_3656" fill="white">
<path d="M31.8298 50.6349H1.51064C0.952564 50.6349 0.5 50.1891 0.5 49.6388C0.5 49.0887 0.952564 48.6426 1.51064 48.6426H31.8298C32.3879 48.6426 32.8404 49.0887 32.8404 49.6388C32.8404 50.1891 32.3879 50.6349 31.8298 50.6349Z"/>
</mask>
<path d="M31.8298 50.6349H1.51064C0.952564 50.6349 0.5 50.1891 0.5 49.6388C0.5 49.0887 0.952564 48.6426 1.51064 48.6426H31.8298C32.3879 48.6426 32.8404 49.0887 32.8404 49.6388C32.8404 50.1891 32.3879 50.6349 31.8298 50.6349Z" fill="#6D95FC"/>
<path d="M31.8298 46.6349H1.51064V54.6349H31.8298V46.6349ZM1.51064 46.6349C3.10667 46.6349 4.5 47.9253 4.5 49.6388H-3.5C-3.5 52.4528 -1.20154 54.6349 1.51064 54.6349V46.6349ZM4.5 49.6388C4.5 51.3519 3.10718 52.6426 1.51064 52.6426V44.6426C-1.20205 44.6426 -3.5 46.8254 -3.5 49.6388H4.5ZM1.51064 52.6426H31.8298V44.6426H1.51064V52.6426ZM31.8298 52.6426C30.2332 52.6426 28.8404 51.3519 28.8404 49.6388H36.8404C36.8404 46.8254 34.5425 44.6426 31.8298 44.6426V52.6426ZM28.8404 49.6388C28.8404 47.9253 30.2338 46.6349 31.8298 46.6349V54.6349C34.542 54.6349 36.8404 52.4528 36.8404 49.6388H28.8404Z" fill="#FBFBFB" mask="url(#path-18-inside-9_5_3656)"/>
<mask id="path-20-inside-10_5_3656" fill="white">
<path d="M59.1172 95.4622H36.8832C36.3251 95.4622 35.8726 95.0163 35.8726 94.466V82.5118C35.8726 81.9615 36.3251 81.5156 36.8832 81.5156H59.1172C59.6755 81.5156 60.1279 81.9615 60.1279 82.5118V94.466C60.1279 95.0163 59.6755 95.4622 59.1172 95.4622ZM37.8938 93.4698H58.1066V83.508H37.8938V93.4698Z"/>
</mask>
<path d="M59.1172 95.4622H36.8832C36.3251 95.4622 35.8726 95.0163 35.8726 94.466V82.5118C35.8726 81.9615 36.3251 81.5156 36.8832 81.5156H59.1172C59.6755 81.5156 60.1279 81.9615 60.1279 82.5118V94.466C60.1279 95.0163 59.6755 95.4622 59.1172 95.4622ZM37.8938 93.4698H58.1066V83.508H37.8938V93.4698Z" fill="#6D95FC"/>
<path d="M37.8938 93.4698H33.8938V97.4698H37.8938V93.4698ZM58.1066 93.4698V97.4698H62.1066V93.4698H58.1066ZM58.1066 83.508H62.1066V79.508H58.1066V83.508ZM37.8938 83.508V79.508H33.8938V83.508H37.8938ZM59.1172 91.4622H36.8832V99.4622H59.1172V91.4622ZM36.8832 91.4622C38.4792 91.4622 39.8726 92.7525 39.8726 94.466H31.8726C31.8726 97.2801 34.171 99.4622 36.8832 99.4622V91.4622ZM39.8726 94.466V82.5118H31.8726V94.466H39.8726ZM39.8726 82.5118C39.8726 84.2253 38.4792 85.5156 36.8832 85.5156V77.5156C34.171 77.5156 31.8726 79.6977 31.8726 82.5118H39.8726ZM36.8832 85.5156H59.1172V77.5156H36.8832V85.5156ZM59.1172 85.5156C57.5209 85.5156 56.1279 84.2248 56.1279 82.5118H64.1279C64.1279 79.6982 61.8301 77.5156 59.1172 77.5156V85.5156ZM56.1279 82.5118V94.466H64.1279V82.5118H56.1279ZM56.1279 94.466C56.1279 92.753 57.5209 91.4622 59.1172 91.4622V99.4622C61.8301 99.4622 64.1279 97.2796 64.1279 94.466H56.1279ZM37.8938 97.4698H58.1066V89.4698H37.8938V97.4698ZM62.1066 93.4698V83.508H54.1066V93.4698H62.1066ZM58.1066 79.508H37.8938V87.508H58.1066V79.508ZM33.8938 83.508V93.4698H41.8938V83.508H33.8938Z" fill="#FBFBFB" mask="url(#path-20-inside-10_5_3656)"/>
<mask id="path-22-inside-11_5_3656" fill="white">
<path d="M54.0636 95.4622H41.9359C41.3779 95.4622 40.9253 95.0163 40.9253 94.466V82.5118C40.9253 81.9615 41.3779 81.5156 41.9359 81.5156H54.0636C54.6219 81.5156 55.0742 81.9615 55.0742 82.5118V94.466C55.0742 95.0163 54.6219 95.4622 54.0636 95.4622ZM42.9466 93.4698H53.053V83.508H42.9466V93.4698Z"/>
</mask>
<path d="M54.0636 95.4622H41.9359C41.3779 95.4622 40.9253 95.0163 40.9253 94.466V82.5118C40.9253 81.9615 41.3779 81.5156 41.9359 81.5156H54.0636C54.6219 81.5156 55.0742 81.9615 55.0742 82.5118V94.466C55.0742 95.0163 54.6219 95.4622 54.0636 95.4622ZM42.9466 93.4698H53.053V83.508H42.9466V93.4698Z" fill="#6D95FC"/>
<path d="M42.9466 93.4698H38.9466V97.4698H42.9466V93.4698ZM53.053 93.4698V97.4698H57.053V93.4698H53.053ZM53.053 83.508H57.053V79.508H53.053V83.508ZM42.9466 83.508V79.508H38.9466V83.508H42.9466ZM54.0636 91.4622H41.9359V99.4622H54.0636V91.4622ZM41.9359 91.4622C43.5319 91.4622 44.9253 92.7525 44.9253 94.466H36.9253C36.9253 97.2801 39.2238 99.4622 41.9359 99.4622V91.4622ZM44.9253 94.466V82.5118H36.9253V94.466H44.9253ZM44.9253 82.5118C44.9253 84.2253 43.5319 85.5156 41.9359 85.5156V77.5156C39.2238 77.5156 36.9253 79.6977 36.9253 82.5118H44.9253ZM41.9359 85.5156H54.0636V77.5156H41.9359V85.5156ZM54.0636 85.5156C52.4673 85.5156 51.0742 84.2248 51.0742 82.5118H59.0742C59.0742 79.6982 56.7765 77.5156 54.0636 77.5156V85.5156ZM51.0742 82.5118V94.466H59.0742V82.5118H51.0742ZM51.0742 94.466C51.0742 92.753 52.4673 91.4622 54.0636 91.4622V99.4622C56.7765 99.4622 59.0742 97.2796 59.0742 94.466H51.0742ZM42.9466 97.4698H53.053V89.4698H42.9466V97.4698ZM57.053 93.4698V83.508H49.053V93.4698H57.053ZM53.053 79.508H42.9466V87.508H53.053V79.508ZM38.9466 83.508V93.4698H46.9466V83.508H38.9466Z" fill="#FBFBFB" mask="url(#path-22-inside-11_5_3656)"/>
<mask id="path-24-inside-12_5_3656" fill="white">
<path d="M62.1491 99.4468H33.8513C32.1795 99.4468 30.8193 98.1062 30.8193 96.4583C30.8193 94.8104 32.1795 93.4697 33.8513 93.4697H62.1491C63.8209 93.4697 65.181 94.8104 65.181 96.4583C65.181 98.1062 63.8209 99.4468 62.1491 99.4468ZM33.8513 95.4621C33.294 95.4621 32.8406 95.909 32.8406 96.4583C32.8406 97.0076 33.294 97.4545 33.8513 97.4545H62.1491C62.7064 97.4545 63.1598 97.0076 63.1598 96.4583C63.1598 95.909 62.7064 95.4621 62.1491 95.4621H33.8513Z"/>
</mask>
<path d="M62.1491 99.4468H33.8513C32.1795 99.4468 30.8193 98.1062 30.8193 96.4583C30.8193 94.8104 32.1795 93.4697 33.8513 93.4697H62.1491C63.8209 93.4697 65.181 94.8104 65.181 96.4583C65.181 98.1062 63.8209 99.4468 62.1491 99.4468ZM33.8513 95.4621C33.294 95.4621 32.8406 95.909 32.8406 96.4583C32.8406 97.0076 33.294 97.4545 33.8513 97.4545H62.1491C62.7064 97.4545 63.1598 97.0076 63.1598 96.4583C63.1598 95.909 62.7064 95.4621 62.1491 95.4621H33.8513Z" fill="#6D95FC"/>
<path d="M62.1491 95.4468H33.8513V103.447H62.1491V95.4468ZM33.8513 95.4468C34.3341 95.4468 34.8193 95.8429 34.8193 96.4583H26.8193C26.8193 100.369 30.0248 103.447 33.8513 103.447V95.4468ZM34.8193 96.4583C34.8193 97.0737 34.3341 97.4697 33.8513 97.4697V89.4697C30.0248 89.4697 26.8193 92.5471 26.8193 96.4583H34.8193ZM33.8513 97.4697H62.1491V89.4697H33.8513V97.4697ZM62.1491 97.4697C61.6663 97.4697 61.181 97.0737 61.181 96.4583H69.181C69.181 92.5471 65.9755 89.4697 62.1491 89.4697V97.4697ZM61.181 96.4583C61.181 95.8429 61.6663 95.4468 62.1491 95.4468V103.447C65.9755 103.447 69.181 100.369 69.181 96.4583H61.181ZM33.8513 91.4621C31.1394 91.4621 28.8406 93.6457 28.8406 96.4583H36.8406C36.8406 98.1723 35.4486 99.4621 33.8513 99.4621V91.4621ZM28.8406 96.4583C28.8406 99.2708 31.1394 101.454 33.8513 101.454V93.4545C35.4486 93.4545 36.8406 94.7443 36.8406 96.4583H28.8406ZM33.8513 101.454H62.1491V93.4545H33.8513V101.454ZM62.1491 101.454C64.861 101.454 67.1598 99.2708 67.1598 96.4583H59.1598C59.1598 94.7443 60.5518 93.4545 62.1491 93.4545V101.454ZM67.1598 96.4583C67.1598 93.6457 64.861 91.4621 62.1491 91.4621V99.4621C60.5518 99.4621 59.1598 98.1723 59.1598 96.4583H67.1598ZM62.1491 91.4621H33.8513V99.4621H62.1491V91.4621Z" fill="#FBFBFB" mask="url(#path-24-inside-12_5_3656)"/>
</svg>
