<svg width="95" height="108" viewBox="0 0 95 108" fill="none" xmlns="http://www.w3.org/2000/svg">
<path d="M57.2321 102.421C57.7642 102.356 58.2225 101.997 58.4082 101.484C58.6141 100.915 58.4414 100.278 57.9762 99.8918C53.6127 96.2732 50.9387 91.0118 50.5887 85.3536C50.2387 79.6954 52.2439 74.1442 56.1283 70.0162C60.0128 65.8872 65.432 63.548 71.1009 63.5533C71.9864 63.5542 72.8715 63.6099 73.7499 63.7223C74.1596 63.7737 74.5705 63.6472 74.8794 63.3749C75.1888 63.102 75.3662 62.7102 75.3662 62.2984V17.3075C75.3646 15.7552 74.7473 14.2672 73.6497 13.1696C72.5521 12.0721 71.0644 11.4548 69.512 11.4531H54.7643C53.9711 11.4531 53.3278 12.0963 53.3278 12.8895V17.7738V18.2738H52.8278H23.0556H22.5556V17.7738V12.8895C22.5556 12.5086 22.4042 12.143 22.135 11.8738C21.8657 11.6045 21.5001 11.4531 21.1192 11.4531H6.35416C4.8019 11.4548 3.31406 12.0721 2.21651 13.1696C2.21651 13.1696 2.21651 13.1696 2.2165 13.1696M57.2321 102.421L0 17.307C0.00172906 15.6222 0.671706 14.0074 1.86295 12.8161L2.2165 13.1696M57.2321 102.421H57.0572H6.35465C4.80295 102.419 3.31504 101.802 2.21736 100.704C1.11982 99.6066 0.502486 98.1187 0.5 96.5672V17.3073M57.2321 102.421L0.5 17.3073M2.2165 13.1696C1.11895 14.2672 0.501661 15.755 0.5 17.3073M2.2165 13.1696L0.5 17.3073M6.35392 14.3264V14.3264L6.34944 14.3264C4.71198 14.3409 3.39005 15.6671 3.37969 17.3043H3.37968V17.3074L3.37968 96.568L3.37969 96.5687C3.38176 98.2104 4.70983 99.543 6.35202 99.5491H6.35388H52.4408H53.4828L52.8308 98.7362C49.1321 94.1251 47.3148 88.285 47.7447 82.389C48.1747 76.493 50.819 70.9779 55.1473 66.9516C59.4758 62.9254 65.1678 60.6858 71.079 60.6823C71.3812 60.6823 71.6649 60.6824 71.9481 60.6988L72.4769 60.7292V60.1996V17.3084V17.3077C72.4748 15.6627 71.1414 14.3294 69.4964 14.3273H69.4958H56.7008H56.2008V14.8273V19.7115C56.2008 20.0925 56.0494 20.458 55.7802 20.7273C55.5109 20.9966 55.1453 21.1479 54.7644 21.1479H21.1193C20.3259 21.1479 19.6829 20.5054 19.6829 19.7115V14.8273V14.3273L19.1829 14.3273L6.35392 14.3264Z" fill="white" stroke="black"/>
<path d="M30.7884 6.83955H30.3712H21.1195C20.3263 6.83955 19.6831 7.48277 19.6831 8.27597V19.7104C19.6831 20.5043 20.3262 21.1468 21.1195 21.1468H54.7646H54.765C55.5584 21.1468 56.2015 20.5043 56.2015 19.7104V8.27597C56.2015 7.89502 56.0501 7.52946 55.7808 7.2602C55.5116 6.99093 55.146 6.83955 54.765 6.83955H45.5211H45.1039L45.0292 6.42911C44.6234 4.20053 43.1919 2.29282 41.1652 1.2791C39.1388 0.266347 36.7536 0.266344 34.7271 1.27908L30.7884 6.83955ZM30.7884 6.83955L30.8631 6.42911M30.7884 6.83955L30.8631 6.42911M30.8631 6.42911C31.2689 4.2006 32.7003 2.29305 34.727 1.27917L30.8631 6.42911ZM22.556 18.274L22.556 17.774L22.5557 10.2124L22.5556 9.71239H23.0557H32.1836H32.186C32.5922 9.71432 32.9801 9.54398 33.2541 9.24384C33.5227 8.94887 33.6565 8.5572 33.6247 8.16167L33.6242 8.15822C33.6001 7.98966 33.6002 7.84349 33.6002 7.72193V7.71233V7.69947L33.6003 7.69947C33.6394 6.18017 34.471 4.79215 35.7946 4.04329L22.556 18.274ZM22.556 18.274H23.056H52.8282H53.3282V17.774V10.2124V9.71239H52.8282L43.669 9.71239L43.6666 9.7124C43.2602 9.71432 42.8715 9.54381 42.5976 9.24384M22.556 18.274L42.5976 9.24384M42.5976 9.24384C42.3237 8.94301 42.1904 8.54106 42.2302 8.1364L42.2302 8.13622M42.5976 9.24384L42.2302 8.13622M42.2302 8.13622C42.2436 7.99896 42.2516 7.86408 42.2516 7.71233H42.2518M42.2302 8.13622L42.2518 7.71233M42.2518 7.71233L42.2514 7.69979M42.2518 7.71233L42.2514 7.69979M42.2514 7.69979C42.2133 6.17994 41.3806 4.79198 40.0581 4.04328M42.2514 7.69979L40.0581 4.04328M40.0581 4.04328C38.7357 3.29465 37.1171 3.29456 35.7947 4.0432L40.0581 4.04328Z" fill="white" stroke="black"/>
<path d="M11.2714 93.6019C10.4782 93.6019 9.83496 92.9587 9.83496 92.1655V21.704C9.83496 20.9101 10.478 20.2676 11.2714 20.2676C12.0647 20.2676 12.7078 20.9101 12.7078 21.704V92.1655C12.7078 92.5461 12.5566 92.9111 12.2867 93.1817C12.0175 93.4507 11.6521 93.6019 11.2714 93.6019Z" fill="#6D95FC" stroke="black"/>
<path d="M64.6015 64.5292C63.8083 64.5292 63.165 63.886 63.165 63.0928V21.702C63.165 20.9088 63.8083 20.2656 64.6015 20.2656C65.3947 20.2656 66.0379 20.9088 66.0379 21.702V63.0928C66.0379 63.4738 65.8865 63.8393 65.6172 64.1086L65.9708 64.4621L65.6172 64.1086C65.348 64.3779 64.9824 64.5292 64.6015 64.5292Z" fill="#6D95FC" stroke="black"/>
<path d="M56.2916 69.2898H18.6254C17.832 69.2898 17.189 68.6473 17.189 67.8534C17.189 67.0602 17.8322 66.417 18.6254 66.417H56.2916C57.0848 66.417 57.728 67.0602 57.728 67.8534C57.728 68.6473 57.0849 69.2898 56.2916 69.2898Z" fill="#6D95FC" stroke="black"/>
<path d="M50.9379 76.781H18.6273C17.8341 76.781 17.1909 76.1378 17.1909 75.3446C17.1909 74.5507 17.834 73.9082 18.6273 73.9082H50.9379C51.7313 73.9082 52.3744 74.5507 52.3744 75.3446C52.3744 76.1378 51.7312 76.781 50.9379 76.781Z" fill="#6D95FC" stroke="black"/>
<path d="M49.1633 84.2703H18.6254C17.8322 84.2703 17.189 83.6271 17.189 82.8339C17.189 82.0407 17.8322 81.3975 18.6254 81.3975H49.1633C49.9565 81.3975 50.5998 82.0407 50.5998 82.8339C50.5998 83.6271 49.9565 84.2703 49.1633 84.2703Z" fill="#6D95FC" stroke="black"/>
<path d="M50.0284 91.7586H18.6273C17.8341 91.7586 17.1909 91.1154 17.1909 90.3222C17.1909 89.529 17.8341 88.8857 18.6273 88.8857H50.0284C50.8223 88.8857 51.4648 89.5288 51.4648 90.3222C51.4648 91.1155 50.8223 91.7586 50.0284 91.7586Z" fill="#6D95FC" stroke="black"/>
<path d="M87.6362 100.618L87.6362 100.618C92.024 96.231 94.4922 90.2816 94.4998 84.0764C94.4996 77.869 92.035 71.9159 87.6457 67.5257C83.2562 63.1363 77.3035 60.6698 71.0962 60.6689L87.6362 100.618ZM87.6362 100.618C83.2484 105.006 77.299 107.474 71.0939 107.48C64.8868 107.48 58.9333 105.013 54.544 100.624M87.6362 100.618L54.544 100.624M54.544 100.624C50.1545 96.2345 47.689 90.2811 47.689 84.0735M54.544 100.624L47.689 84.0735M47.689 84.0735C47.689 77.8661 50.1554 71.9125 54.5448 67.524M47.689 84.0735L54.5448 67.524M54.5448 67.524C58.9351 63.1345 64.8885 60.669 71.0961 60.6689L54.5448 67.524ZM71.5944 63.5603V63.544H71.0944C65.6486 63.544 60.4264 65.7078 56.5756 69.5577L56.5755 69.5577C52.7246 73.4086 50.5618 78.6309 50.5618 84.0766C50.5618 89.5223 52.7247 94.7446 56.5755 98.5955L56.5756 98.5955C60.4264 102.445 65.6486 104.609 71.0944 104.609C76.5401 104.609 81.7624 102.445 85.6124 98.5955C89.4632 94.7446 91.627 89.5223 91.627 84.0766V84.0758C91.619 78.6339 89.4526 73.4169 85.6037 69.5698C81.8726 65.8405 76.8553 63.6931 71.5944 63.5603Z" fill="white" stroke="black"/>
<path d="M64.8426 91.5119L64.842 91.5113L62.4969 89.1689L62.4966 89.1686L62.4961 89.168L62.496 89.1679C62.2271 88.899 62.0762 88.5336 62.0762 88.1521C62.0762 87.7712 62.2275 87.4059 62.4973 87.1368L62.4975 87.1365C63.0588 86.5759 63.9689 86.5762 64.529 87.137L64.5292 87.1372L65.4974 88.1054L65.851 88.4589L66.2045 88.1055L77.6513 76.6613C78.2158 76.1293 79.103 76.1416 79.6524 76.691C80.2017 77.2403 80.214 78.1274 79.6821 78.692L66.8589 91.5151C66.8588 91.5153 66.8586 91.5154 66.8585 91.5156C66.5917 91.7808 66.2318 91.9307 65.855 91.9339C65.4749 91.9327 65.1109 91.7808 64.8426 91.5119Z" fill="#6D95FC" stroke="black"/>
<path d="M58.8761 96.3022L58.8762 96.3022C62.1166 99.5433 66.511 101.363 71.0939 101.363C75.6747 101.358 80.0663 99.5367 83.306 96.2977C86.545 93.0589 88.3674 88.6672 88.3733 84.0865C88.374 79.5044 86.5534 75.1088 83.3139 71.8685C80.0733 68.6272 75.6786 66.8065 71.0963 66.8057L58.8761 96.3022ZM58.8761 96.3022C55.6357 93.0618 53.8159 88.6668 53.8159 84.0836M58.8761 96.3022L53.8159 84.0836M71.0947 69.6812H71.0953C74.9145 69.6857 78.5764 71.2045 81.2764 73.9053C81.2764 73.9054 81.2765 73.9054 81.2765 73.9055M71.0947 69.6812L80.9229 74.2589L81.2765 73.9055M71.0947 69.6812C67.2743 69.6812 63.6097 71.1991 60.9077 73.9009L60.9077 73.901C58.2067 76.6019 56.6888 80.2667 56.6888 84.0871C56.6888 87.9076 58.2067 91.5721 60.9076 94.2741L60.9077 94.2742C63.6096 96.9751 67.2743 98.4931 71.0947 98.4931C74.9152 98.4931 78.5797 96.9751 81.2809 94.2742L81.2809 94.2742C83.9827 91.5723 85.5007 87.9076 85.5007 84.0871V84.0865C85.4962 80.2673 83.9775 76.6054 81.2765 73.9055M71.0947 69.6812L81.2765 73.9055M53.8159 84.0836C53.8159 79.5013 55.6365 75.1066 58.877 71.8659M53.8159 84.0836L58.877 71.8659M58.877 71.8659C58.877 71.8659 58.877 71.8659 58.877 71.8659C62.1183 68.6255 66.5132 66.8057 71.0962 66.8057L58.877 71.8659Z" fill="white" stroke="black"/>
<path d="M33.1435 55.8502V56.1797V60.5056C33.1435 61.2988 33.7867 61.942 34.5799 61.942H41.289C41.6697 61.942 42.0351 61.7908 42.3044 61.5217C42.5743 61.2512 42.7255 60.8861 42.7255 60.5055V56.1797V55.8493L43.0293 55.7197C44.0037 55.3042 44.9236 54.7722 45.7685 54.1346L45.9022 54.0337H46.0697H46.0706H46.2046L46.3206 54.1007L50.0673 56.2645L50.0675 56.2646C50.7544 56.6616 51.6329 56.4267 52.0297 55.7408L55.3844 49.9321L33.1435 55.8502ZM33.1435 55.8502L32.8406 55.7202C31.8675 55.3028 30.9485 54.7713 30.1019 54.1364L29.8378 53.9383L29.5519 54.1034L25.9212 56.2001M33.1435 55.8502L25.9212 56.2001M25.9212 56.2001H25.9203L25.8042 56.2672C25.4747 56.4577 25.0822 56.5096 24.7144 56.4109L24.5848 56.8938L24.7143 56.4109C24.3464 56.3122 24.0327 56.0711 23.8421 55.7412C23.8421 55.7412 23.842 55.7412 23.842 55.7411L20.4872 49.9322L25.9212 56.2001ZM19.8606 48.7116L20.3434 48.8411C20.2447 49.2088 20.2965 49.6013 20.4871 49.932L19.8606 48.7116ZM19.8606 48.7116L20.3434 48.8411C20.4421 48.4732 20.6832 48.1594 21.0131 47.9688L24.7578 45.8077L25.044 45.6426M19.8606 48.7116L25.044 45.6426M25.044 45.6426L25.0043 45.3145M25.044 45.6426L25.0043 45.3145M25.0043 45.3145C24.8768 44.2635 24.8768 43.2008 25.0043 42.1498L25.044 41.8217M25.0043 45.3145L25.044 41.8217M25.044 41.8217L24.7578 41.6566M25.044 41.8217L24.7578 41.6566M24.7578 41.6566L21.0131 39.4955L24.7578 41.6566ZM20.3434 38.6232L20.3434 38.6232C20.4421 38.991 20.6831 39.3047 21.0129 39.4954L20.3434 38.6232ZM20.3434 38.6232C20.2447 38.2555 20.2965 37.8628 20.4872 37.5321L23.842 31.7232C23.842 31.7232 23.8421 31.7231 23.8421 31.7231C24.0327 31.3932 24.3464 31.1521 24.7143 31.0534L24.7143 31.0534M20.3434 38.6232L24.7143 31.0534M24.7143 31.0534C25.0822 30.9548 25.4747 31.0067 25.8042 31.1971L25.8043 31.1971M24.7143 31.0534L25.8043 31.1971M25.8043 31.1971L29.551 33.3609L29.6671 33.4279M25.8043 31.1971L29.6671 33.4279M29.6671 33.4279H29.8011M29.6671 33.4279H29.8011M29.8011 33.4279H29.8019H29.9689M29.8011 33.4279H29.9689M29.9689 33.4279L30.1024 33.3276M29.9689 33.4279L30.1024 33.3276M30.1024 33.3276C30.9476 32.6922 31.8672 32.1608 32.8403 31.7442L33.1435 31.6144M30.1024 33.3276L33.1435 31.6144M33.1435 31.6144V31.2846M33.1435 31.6144V31.2846M33.1435 31.2846V26.9569C33.1435 26.163 33.7866 25.5205 34.5799 25.5205H41.2891M33.1435 31.2846L41.2891 25.5205M41.2891 25.5205C41.67 25.5205 42.0356 25.6719 42.3048 25.9412C42.5741 26.2104 42.7255 26.576 42.7255 26.9569V30.5251V31.2819V31.2828H43.2251M41.2891 25.5205L43.2251 31.2828M43.2251 31.2828L43.0293 31.7418C44.0035 32.1573 44.9229 32.6895 45.7695 33.3251L46.0335 33.5234L46.3195 33.3584L50.0671 31.1973L50.0674 31.197C50.397 31.0066 50.7895 30.9547 51.1573 31.0534L51.2869 30.5705L51.1573 31.0534C51.5253 31.1521 51.839 31.3932 52.0296 31.7231L55.3844 37.532L43.2251 31.2828ZM54.8588 39.4954C55.1885 39.3047 55.4296 38.991 55.5283 38.6231C55.6269 38.2555 55.5752 37.863 55.3846 37.5323L54.8588 39.4954ZM54.8588 39.4954C54.8587 39.4954 54.8586 39.4954 54.8585 39.4955L51.2281 41.5896H50.7954L50.8649 42.151C50.9298 42.6747 50.9614 43.202 50.9605 43.7304L50.9605 43.732C50.9614 44.2605 50.9298 44.7895 50.8672 45.3156L50.8283 45.6429L51.1138 45.8077L54.8585 47.9687C55.1884 48.1593 55.4295 48.4731 55.5282 48.841C55.6269 49.2087 55.5751 49.6012 55.3845 49.9319L54.8588 39.4954ZM36.0154 59.0692L36.0155 58.5691L36.0164 54.8295C36.0164 54.8295 36.0164 54.8294 36.0164 54.8294C36.0163 54.1955 35.6019 53.6371 34.9962 53.4538L34.9952 53.4535C33.5008 52.9981 32.1302 52.2055 30.9895 51.1375L30.9887 51.1368C30.528 50.7036 29.8376 50.6233 29.2894 50.9394L26.0462 52.8126L25.6132 53.0627L25.3631 52.6296L23.9445 50.1727L23.6945 49.7396L24.1276 49.4896L27.3684 47.619C27.3685 47.619 27.3685 47.6189 27.3686 47.6189C27.917 47.3019 28.1931 46.6639 28.0489 46.048L28.0488 46.0476C27.6934 44.524 27.6934 42.9387 28.0488 41.4151C28.1924 40.799 27.9162 40.1623 27.3682 39.8453L24.1276 37.9748L23.6945 37.7248L23.9445 37.2917L25.3631 34.8348L25.6132 34.4017L26.0462 34.6518L29.2894 36.525C29.2894 36.525 29.2895 36.525 29.2895 36.525C29.8376 36.841 30.5279 36.7608 30.9887 36.3276L30.9895 36.3268C32.1303 35.2589 33.5008 34.4663 34.9952 34.0109L34.9961 34.0106C35.6019 33.8273 36.0164 33.2689 36.0164 32.6349V28.8935V28.3935H36.5164H39.3526H39.8526V28.8935V32.6349C39.8526 33.2684 40.2682 33.8277 40.8748 34.0104L40.8763 34.0109C42.3707 34.4663 43.7414 35.2589 44.8821 36.3268L44.8824 36.3271C45.3439 36.7599 46.0344 36.8393 46.5816 36.5227L46.5822 36.5224L49.8256 34.6517L50.2585 34.402L50.5084 34.8348L51.9271 37.2917L52.1771 37.7248L51.744 37.9748L48.5034 39.8452C47.9553 40.1623 47.6792 40.7991 47.8228 41.4152L47.8229 41.4159C48.1755 42.939 48.1755 44.5228 47.823 46.0467L47.8227 46.048C47.6784 46.664 47.9547 47.3021 48.5032 47.619L51.744 49.4896L52.1771 49.7396L51.9271 50.1727L50.5084 52.6296L50.2584 53.0627L49.8254 52.8125L46.5822 50.9394L36.0154 59.0692ZM36.0154 59.0692H36.5155M36.0154 59.0692H36.5155M36.5155 59.0692H39.3526H39.8526M36.5155 59.0692H39.8526M39.8526 59.0692V58.5692M39.8526 59.0692V58.5692M39.8526 58.5692V54.8269C39.8526 54.1934 40.2682 53.6341 40.8748 53.4514L40.8757 53.4511M39.8526 58.5692L40.8757 53.4511M40.8757 53.4511C42.3713 52.9974 43.7421 52.2056 44.8822 51.1374L44.8829 51.1368M40.8757 53.4511L44.8829 51.1368M44.8829 51.1368C45.3436 50.7036 46.0339 50.6234 46.5819 50.9392L44.8829 51.1368ZM31.3312 36.6919C30.7097 37.2762 29.7786 37.3843 29.0396 36.9581L31.3312 36.6919Z" fill="#6D95FC" stroke="black"/>
<path d="M32.932 48.7367L32.9321 48.7368C34.2587 50.0642 36.0593 50.811 37.9363 50.8111L32.932 48.7367ZM32.932 48.7367C31.6047 47.4094 30.8595 45.6088 30.8604 43.7316V43.7314M32.932 48.7367L30.8604 43.7314M30.8604 43.7314C30.8604 41.8541 31.6064 40.0535 32.9337 38.727C34.262 37.3995 36.0619 36.6543 37.9392 36.6543C39.8164 36.6543 41.6171 37.4004 42.9445 38.7278C44.2718 40.055 45.017 41.8554 45.0171 43.7327C45.0155 45.6101 44.2686 47.4099 42.9411 48.7366L42.941 48.7367M30.8604 43.7314L42.941 48.7367M42.941 48.7367C41.6136 50.0642 39.8138 50.8102 37.9365 50.8111L42.941 48.7367ZM37.9361 39.5271L37.9365 39.5271C39.052 39.5271 40.1213 39.9696 40.911 40.7583L40.9112 40.7585C41.7 41.5473 42.1433 42.6166 42.1443 43.7328V43.7332C42.1443 44.8476 41.7019 45.9181 40.9127 46.7063C40.1241 47.4948 39.055 47.9382 37.9396 47.9383C37.9394 47.9383 37.9393 47.9383 37.9391 47.9383V47.4383L37.9361 39.5271ZM37.9361 39.5271C36.8208 39.5281 35.7514 39.9715 34.9634 40.7604M37.9361 39.5271L34.9634 40.7604M34.9634 40.7604C34.1746 41.5493 33.7322 42.6196 33.7331 43.7342L34.9634 40.7604Z" fill="#6D95FC" stroke="black"/>
</svg>
