<svg width="96" height="95" viewBox="0 0 96 95" fill="none" xmlns="http://www.w3.org/2000/svg">
<path d="M30.3793 67.4202H16.5889C16.1661 67.4202 15.8228 67.0768 15.8228 66.6541V57.4605C15.8228 57.0377 16.1661 56.6943 16.5889 56.6943C17.0116 56.6943 17.355 57.0377 17.355 57.4605V65.888H30.3793C30.8021 65.888 31.1454 66.2313 31.1454 66.6541C31.1454 67.0768 30.8021 67.4202 30.3793 67.4202Z" fill="#6D95FC"/>
<path d="M90.1359 67.4201H50.2969C49.8741 67.4201 49.5308 67.0767 49.5308 66.654C49.5308 66.2312 49.8741 65.8878 50.2969 65.8878H89.3689V27.5811H51.8274C51.4047 27.5811 51.0613 27.2377 51.0613 26.815C51.0613 26.3922 51.4047 26.0488 51.8274 26.0488H90.1341C90.5569 26.0488 90.9003 26.3922 90.9003 26.815V66.654C90.9003 67.0767 90.5569 67.4201 90.1341 67.4201H90.1359Z" fill="white"/>
<path d="M41.1035 91.936C41.0502 91.936 40.9934 91.9298 40.938 91.9175C40.5241 91.8258 40.2656 91.4168 40.3559 91.0029L43.4204 77.2125C43.5121 76.8 43.917 76.5428 44.335 76.6304C44.7488 76.722 45.0074 77.1311 44.9171 77.545L41.8526 91.3354C41.7732 91.6925 41.4544 91.936 41.1035 91.936Z" fill="white"/>
<path d="M65.6196 91.9359C65.2687 91.9359 64.95 91.6924 64.872 91.3353L61.8074 77.5449C61.7158 77.1311 61.9757 76.722 62.3896 76.6303C62.8082 76.5428 63.2125 76.8007 63.3042 77.2125L66.3687 91.0029C66.4604 91.4167 66.2004 91.8258 65.7866 91.9175C65.7298 91.9298 65.673 91.9359 65.6196 91.9359Z" fill="white"/>
<path d="M74.8131 78.1461H16.1648C13.4402 78.1461 11.2246 75.8997 11.2246 73.1369V57.4605C11.2246 57.0377 11.568 56.6943 11.9907 56.6943C12.4135 56.6943 12.7569 57.0377 12.7569 57.4605V73.1369C12.7569 75.0542 14.2844 76.6138 16.1648 76.6138H74.8131C75.2358 76.6138 75.5792 76.9572 75.5792 77.38C75.5792 77.8027 75.2358 78.1461 74.8131 78.1461Z" fill="white"/>
<path d="M90.5598 78.1461H87.0726C86.6498 78.1461 86.3064 77.8027 86.3064 77.38C86.3064 76.9572 86.6498 76.6138 87.0726 76.6138H90.5598C92.4402 76.6138 93.9678 75.0542 93.9678 73.1369V26.4614C93.9678 24.544 92.4403 22.9844 90.5598 22.9844H51.8311C51.4083 22.9844 51.0649 22.641 51.0649 22.2183C51.0649 21.7955 51.4083 21.4521 51.8311 21.4521H90.5598C93.2845 21.4521 95.5 23.6985 95.5 26.4614V73.1369C95.5 75.899 93.2845 78.1456 90.5598 78.1456V78.1461Z" fill="white"/>
<path d="M83.2415 95.0006H78.6447C76.1102 95.0006 74.0479 92.9383 74.0479 90.4038V76.6134C74.0479 74.0789 76.1102 72.0166 78.6447 72.0166H83.2415C85.7759 72.0166 87.8383 74.0789 87.8383 76.6134V90.4038C87.8383 92.9383 85.7759 95.0006 83.2415 95.0006ZM78.6447 73.5489C76.9544 73.5489 75.5801 74.9231 75.5801 76.6134V90.4038C75.5801 92.0941 76.9544 93.4684 78.6447 93.4684H83.2415C84.9317 93.4684 86.306 92.0941 86.306 90.4038V76.6134C86.306 74.9231 84.9317 73.5489 83.2415 73.5489H78.6447Z" fill="white"/>
<path d="M80.9424 81.2101C80.5197 81.2101 80.1763 80.8667 80.1763 80.444V77.3794C80.1763 76.9567 80.5197 76.6133 80.9424 76.6133C81.3652 76.6133 81.7085 76.9567 81.7085 77.3794V80.444C81.7085 80.8667 81.3652 81.2101 80.9424 81.2101Z" fill="white"/>
<path d="M68.684 95.0011H38.0386C36.7718 95.0011 35.7402 93.9696 35.7402 92.7027C35.7402 91.4358 36.7718 90.4043 38.0386 90.4043H68.684C69.9509 90.4043 70.9824 91.4358 70.9824 92.7027C70.9824 93.9696 69.9509 95.0011 68.684 95.0011ZM38.0386 91.9366C37.6173 91.9366 37.2725 92.28 37.2725 92.7027C37.2725 93.1254 37.6173 93.4688 38.0386 93.4688H68.684C69.1054 93.4688 69.4502 93.1254 69.4502 92.7027C69.4502 92.28 69.1054 91.9366 68.684 91.9366H38.0386Z" fill="white"/>
<path d="M51.831 58.2262H1.26613C0.843386 58.2262 0.5 57.8829 0.5 57.4601V0.766135C0.5 0.343386 0.843386 0 1.26613 0H51.831C52.2538 0 52.5972 0.343386 52.5972 0.766135V57.4601C52.5972 57.8829 52.2538 58.2262 51.831 58.2262ZM2.03139 56.694H51.064V1.53227H2.03139V56.694Z" fill="white"/>
<path d="M87.0715 18.3871H62.5552C62.1324 18.3871 61.7891 18.0438 61.7891 17.621V3.83059C61.7891 3.40784 62.1324 3.06445 62.5552 3.06445H87.0715C87.4943 3.06445 87.8376 3.40784 87.8376 3.83059V17.621C87.8376 18.0438 87.4943 18.3871 87.0715 18.3871ZM63.3222 16.8549H86.3062V4.59672H63.3222V16.8549Z" fill="white"/>
<path d="M85.5409 38.3069H56.4278C56.005 38.3069 55.6616 37.9635 55.6616 37.5407V31.4116C55.6616 30.9889 56.005 30.6455 56.4278 30.6455H85.5409C85.9636 30.6455 86.307 30.9889 86.307 31.4116V37.5407C86.307 37.9635 85.9636 38.3069 85.5409 38.3069ZM57.193 36.7746H84.7739V32.1778H57.193V36.7746Z" fill="#6D95FC"/>
<path d="M65.6199 53.6291H56.4263C56.0035 53.6291 55.6602 53.2857 55.6602 52.863V46.7339C55.6602 46.3112 56.0035 45.9678 56.4263 45.9678H65.6199C66.0427 45.9678 66.386 46.3112 66.386 46.7339V52.863C66.386 53.2857 66.0427 53.6291 65.6199 53.6291ZM57.1924 52.0969H64.8538V47.5H57.1924V52.0969Z" fill="#6D95FC"/>
<path d="M85.541 53.6291H70.2183C69.7955 53.6291 69.4521 53.2857 69.4521 52.863V46.7339C69.4521 46.3112 69.7955 45.9678 70.2183 45.9678H85.541C85.9637 45.9678 86.3071 46.3112 86.3071 46.7339V52.863C86.3071 53.2857 85.9637 53.6291 85.541 53.6291ZM70.9844 52.0969H84.7748V47.5H70.9844V52.0969Z" fill="#6D95FC"/>
<path d="M85.5409 62.8233H21.1856C20.7628 62.8233 20.4194 62.4799 20.4194 62.0572C20.4194 61.6344 20.7628 61.291 21.1856 61.291H85.5409C85.9636 61.291 86.307 61.6344 86.307 62.0572C86.307 62.4799 85.9636 62.8233 85.5409 62.8233Z" fill="#6D95FC"/>
<path d="M85.5409 58.2266H56.4278C56.005 58.2266 55.6616 57.8832 55.6616 57.4605C55.6616 57.0377 56.005 56.6943 56.4278 56.6943H85.5409C85.9636 56.6943 86.307 57.0377 86.307 57.4605C86.307 57.8832 85.9636 58.2266 85.5409 58.2266Z" fill="#6D95FC"/>
<path d="M85.5409 42.9034H56.4278C56.005 42.9034 55.6616 42.56 55.6616 42.1372C55.6616 41.7145 56.005 41.3711 56.4278 41.3711H85.5409C85.9636 41.3711 86.307 41.7145 86.307 42.1372C86.307 42.56 85.9636 42.9034 85.5409 42.9034Z" fill="#6D95FC"/>
<path d="M10.4581 13.7903C8.34516 13.7903 6.62744 12.0712 6.62744 9.95958C6.62744 7.84792 8.34509 6.12891 10.4581 6.12891C12.5711 6.12891 14.2888 7.84792 14.2888 9.95958C14.2888 12.0712 12.5711 13.7903 10.4581 13.7903ZM10.4581 7.66118C9.19125 7.66118 8.15971 8.69272 8.15971 9.95958C8.15971 11.2264 9.19125 12.258 10.4581 12.258C11.725 12.258 12.7565 11.2264 12.7565 9.95958C12.7565 8.69272 11.725 7.66118 10.4581 7.66118Z" fill="#6D95FC"/>
<path d="M13.5227 18.3868H7.39358C6.97083 18.3868 6.62744 18.0434 6.62744 17.6206C6.62744 17.1979 6.97083 16.8545 7.39358 16.8545H13.5227C13.9454 16.8545 14.2888 17.1979 14.2888 17.6206C14.2888 18.0434 13.9454 18.3868 13.5227 18.3868Z" fill="#6D95FC"/>
<path d="M30.3791 18.3868H22.7178C22.295 18.3868 21.9517 18.0434 21.9517 17.6206C21.9517 17.1979 22.295 16.8545 22.7178 16.8545H30.3791C30.8019 16.8545 31.1453 17.1979 31.1453 17.6206C31.1453 18.0434 30.8019 18.3868 30.3791 18.3868Z" fill="#6D95FC"/>
<path d="M42.6373 13.7903C40.5244 13.7903 38.8066 12.0712 38.8066 9.95958C38.8066 7.84792 40.5243 6.12891 42.6373 6.12891C44.7503 6.12891 46.468 7.84792 46.468 9.95958C46.468 12.0712 44.7503 13.7903 42.6373 13.7903ZM42.6373 7.66118C41.3705 7.66118 40.3389 8.69272 40.3389 9.95958C40.3389 11.2264 41.3705 12.258 42.6373 12.258C43.9042 12.258 44.9357 11.2264 44.9357 9.95958C44.9357 8.69272 43.9042 7.66118 42.6373 7.66118Z" fill="#6D95FC"/>
<path d="M45.7019 18.3868H39.5728C39.15 18.3868 38.8066 18.0434 38.8066 17.6206C38.8066 17.1979 39.15 16.8545 39.5728 16.8545H45.7019C46.1246 16.8545 46.468 17.1979 46.468 17.6206C46.468 18.0434 46.1246 18.3868 45.7019 18.3868Z" fill="#6D95FC"/>
<path d="M30.3791 13.7903H22.7178C22.295 13.7903 21.9517 13.4469 21.9517 13.0241V6.89504C21.9517 6.47229 22.295 6.12891 22.7178 6.12891H30.3791C30.8019 6.12891 31.1453 6.47229 31.1453 6.89504V13.0241C31.1453 13.4469 30.8019 13.7903 30.3791 13.7903ZM23.4839 12.258H29.613V7.66118H23.4839V12.258Z" fill="#6D95FC"/>
<path d="M45.7018 33.71H7.39504C6.97229 33.71 6.62891 33.3666 6.62891 32.9439C6.62891 32.5211 6.97229 32.1777 7.39504 32.1777H45.7018C46.1245 32.1777 46.4679 32.5211 46.4679 32.9439C46.4679 33.3666 46.1245 33.71 45.7018 33.71Z" fill="#6D95FC"/>
<path d="M45.7018 52.0967H7.39504C6.97229 52.0967 6.62891 51.7533 6.62891 51.3306C6.62891 50.9078 6.97229 50.5645 7.39504 50.5645H45.7018C46.1245 50.5645 46.4679 50.9078 46.4679 51.3306C46.4679 51.7533 46.1245 52.0967 45.7018 52.0967Z" fill="#6D95FC"/>
<path d="M79.4117 9.1934H76.3472C75.9244 9.1934 75.5811 8.85002 75.5811 8.42727C75.5811 8.00452 75.9244 7.66113 76.3472 7.66113H79.4117C79.8345 7.66113 80.1779 8.00452 80.1779 8.42727C80.1779 8.85002 79.8345 9.1934 79.4117 9.1934Z" fill="white"/>
<path d="M82.4763 13.7901H76.3472C75.9244 13.7901 75.5811 13.4467 75.5811 13.0239C75.5811 12.6012 75.9244 12.2578 76.3472 12.2578H82.4763C82.899 12.2578 83.2424 12.6012 83.2424 13.0239C83.2424 13.4467 82.899 13.7901 82.4763 13.7901Z" fill="white"/>
<path d="M73.2829 13.7902H67.1538C66.7311 13.7902 66.3877 13.4468 66.3877 13.0241V8.42727C66.3877 8.00452 66.7311 7.66113 67.1538 7.66113H73.2829C73.7057 7.66113 74.049 8.00452 74.049 8.42727V13.0241C74.049 13.4468 73.7057 13.7902 73.2829 13.7902ZM67.92 12.2579H72.5168V9.1934H67.92V12.2579Z" fill="white"/>
<path d="M42.6374 67.42H34.9761C34.5533 67.42 34.21 67.0766 34.21 66.6538C34.21 66.2311 34.5533 65.8877 34.9761 65.8877H42.6374C43.0602 65.8877 43.4036 66.2311 43.4036 66.6538C43.4036 67.0766 43.0602 67.42 42.6374 67.42Z" fill="#6D95FC"/>
</svg>
