<svg width="91" height="90" viewBox="0 0 91 90" fill="none" xmlns="http://www.w3.org/2000/svg">
<path d="M57.5447 45.2444C56.8295 44.5291 55.7001 44.5291 54.9848 45.2067L41.9971 58.0062L35.8233 51.7571C35.108 51.0419 33.9786 51.0419 33.2634 51.7195C32.5482 52.4347 32.5482 53.5641 33.2258 54.2793L41.9218 63.126L57.5069 47.7667C58.2598 47.1267 58.2598 45.9597 57.5446 45.2445L57.5447 45.2444Z" fill="#6D95FC"/>
<path d="M49.5352 13.8691L49.5352 13.8691C48.366 14.998 46.8872 15.6688 45.3382 15.628C43.7352 15.6061 42.2229 14.8386 41.1225 13.713C40.0216 12.5868 39.2935 11.0616 39.3144 9.47478L39.3144 9.46871L39.3145 9.46871C39.3967 6.22245 42.1793 3.52285 45.4233 3.52274L49.5352 13.8691ZM49.5352 13.8691L49.5415 13.8629M49.5352 13.8691L49.5415 13.8629M49.5415 13.8629C50.7074 12.6969 51.4572 11.1449 51.4572 9.59423C51.4572 8.03114 50.8398 6.51105 49.692 5.36324C48.5555 4.22674 47.0394 3.5228 45.4235 3.52274L49.5415 13.8629ZM54.1088 9.62414L54.1088 9.62414V9.63195C54.1088 11.8539 53.1203 14.0622 51.4 15.7477C49.7527 17.3223 47.5781 18.242 45.461 18.242H45.3142C40.6576 18.1687 36.6292 14.0276 36.7001 9.41368L36.7001 9.41352C36.7714 4.68342 40.6861 0.871094 45.4234 0.871094H45.4947C47.7701 0.907692 49.9396 1.83193 51.5786 3.50667L51.5786 3.50669L51.5824 3.51049C53.2591 5.18716 54.1443 7.3544 54.1088 9.62414Z" fill="white" stroke="black"/>
<path d="M59.7283 37.104H59.7057C58.9688 37.0927 58.3772 36.5209 58.3456 35.7873V28.7951V28.7335L58.3307 28.6738C58.2962 28.5356 58.2157 28.411 58.1403 28.3156C58.0559 28.2088 57.9432 28.0954 57.8004 27.9811C57.5139 27.7519 57.0943 27.5099 56.5028 27.306L56.501 27.3053L56.3398 27.7786L56.5009 27.3053L56.5008 27.3053L56.5003 27.3051L56.4984 27.3044L56.4907 27.3018L56.4606 27.2916L56.3447 27.2522L55.9162 27.1068C55.553 26.9838 55.0479 26.8131 54.4804 26.6224C53.3462 26.2411 51.9599 25.779 50.9587 25.4579L50.6682 25.3647L50.4524 25.5804L45.4604 30.5724L40.4684 25.5804L40.2527 25.3647L39.9622 25.4579C38.961 25.779 37.5746 26.2412 36.4404 26.6224C35.873 26.8131 35.3679 26.9838 35.0047 27.1069L34.5762 27.2522L34.4603 27.2916L34.4302 27.3018L34.4225 27.3044L34.4214 27.3048C33.2221 27.7049 32.6577 28.3327 32.5803 28.8749L32.5752 28.9101V28.9456V35.797C32.5752 36.4997 31.9709 37.104 31.2683 37.104C30.5588 37.104 29.9613 36.5305 29.9613 35.797V29.0585V29.0512L29.9611 29.0439C29.9296 27.9702 30.5573 25.8447 33.6099 24.8272L33.6099 24.8272L33.6119 24.8265L33.4518 24.3528L33.6119 24.8265L33.6121 24.8264L33.6129 24.8262L33.6157 24.8252L33.6272 24.8213L33.6722 24.8061L33.844 24.7481L34.4673 24.5378C34.9889 24.362 35.6981 24.1233 36.4483 23.8716C37.9515 23.3674 39.6119 22.814 40.265 22.6088L40.265 22.6088L40.2681 22.6078L41.0315 22.3624L45.1448 26.4757L45.4983 26.8293L45.8519 26.4757L49.9651 22.3624L50.7285 22.6078L50.7317 22.6088C51.3848 22.814 53.0451 23.3674 54.5483 23.8716C55.2986 24.1233 56.0077 24.362 56.5293 24.5378L57.1526 24.7481L57.3244 24.8061L57.3694 24.8213L57.3809 24.8252L57.3838 24.8262L57.3845 24.8264L57.3847 24.8265L57.5448 24.3528L57.3847 24.8265L57.3867 24.8272C60.4486 25.8478 61.0981 27.9761 61.0362 29.0292L61.0353 29.0438V29.0585V35.797C61.0353 36.5065 60.4619 37.104 59.7283 37.104Z" fill="white" stroke="black"/>
<path d="M20.6227 65.8949L20.6226 65.8949C19.4521 67.025 17.9354 67.6946 16.4254 67.6538C14.8224 67.6319 13.3103 66.8644 12.2099 65.7388C11.1091 64.6127 10.381 63.0876 10.4018 61.5009L20.6227 65.8949ZM20.6227 65.8949L20.6289 65.8887M20.6227 65.8949L20.6289 65.8887M20.6289 65.8887C21.7932 64.7243 22.5425 63.1752 22.5446 61.6266C22.5843 60.0433 21.9155 58.5654 20.7857 57.3953L20.7858 57.3953M20.6289 65.8887L20.7858 57.3953M20.7858 57.3953L20.7796 57.3891M20.7858 57.3953L20.7796 57.3891M20.7796 57.3891C19.6444 56.2539 18.1287 55.5486 16.5486 55.5486H16.5109C13.233 55.5486 10.4431 58.246 10.4018 61.5006L20.7796 57.3891ZM7.78755 61.4772L7.78755 61.477C7.85876 56.7469 11.7735 52.9346 16.5108 52.9346H16.5822C18.8576 52.9712 21.0271 53.8954 22.6661 55.5701L22.6661 55.5702L22.6699 55.574C24.3466 57.2506 25.2318 59.4179 25.1963 61.6876L25.1962 61.6876V61.6954C25.1962 63.9174 24.2078 66.1257 22.4875 67.8111C20.8402 69.3858 18.6656 70.3055 16.5485 70.3055H16.4037C11.7415 70.1956 7.71662 66.0872 7.78755 61.4772Z" fill="white" stroke="black"/>
<path d="M30.8167 89.1294H30.7934C30.0643 89.1179 29.5092 88.5552 29.5092 87.8226V80.8205V80.7589L29.4943 80.6992C29.4597 80.561 29.3792 80.4364 29.3039 80.341C29.2194 80.2342 29.1068 80.1208 28.9639 80.0065C28.6774 79.7773 28.2579 79.5353 27.6664 79.3313L27.6645 79.3307L27.5034 79.804L27.6645 79.3307L27.6644 79.3307L27.6639 79.3305L27.6619 79.3298L27.6543 79.3272L27.6242 79.317L27.5083 79.2776L27.0797 79.1322C26.7166 79.0092 26.2115 78.8385 25.644 78.6477C24.5098 78.2665 23.1235 77.8044 22.1223 77.4833L21.8318 77.3901L21.616 77.6058L16.624 82.5978L11.632 77.6058L11.4163 77.3901L11.1257 77.4833C10.1245 77.8044 8.73822 78.2665 7.60402 78.6478C7.03654 78.8385 6.53148 79.0092 6.16828 79.1322L5.73976 79.2776L5.62387 79.317L5.59377 79.3272L5.5861 79.3298L5.58495 79.3302C4.38571 79.7303 3.82129 80.3581 3.74383 80.9003L3.73881 80.9355V80.971V87.8224C3.73881 88.525 3.13447 89.1294 2.43183 89.1294C1.72238 89.1294 1.12485 88.5559 1.12485 87.8224V81.0839V81.0766L1.12463 81.0693C1.09316 79.9956 1.72085 77.8701 4.77346 76.8526L4.77347 76.8526L4.77648 76.8515L4.61535 76.3782L4.77653 76.8515L4.77671 76.8515L4.77743 76.8512L4.78031 76.8502L4.7917 76.8464L4.83632 76.8312L5.00694 76.7732L5.626 76.5629C6.14404 76.3871 6.84844 76.1484 7.59395 75.8967C9.08794 75.3924 10.7383 74.8393 11.3908 74.6342L11.3909 74.6342L11.3939 74.6332L12.1573 74.3878L16.2706 78.5011L16.6257 78.8562L16.9793 78.4995L21.0549 74.3883L21.8169 74.6332L21.82 74.6342C22.4732 74.8394 24.1335 75.3928 25.6367 75.897C26.3869 76.1487 27.0961 76.3874 27.6176 76.5632L28.241 76.7735L28.4128 76.8315L28.4577 76.8467L28.4692 76.8506L28.4721 76.8516L28.4728 76.8518L28.473 76.8519L28.6332 76.3782L28.4731 76.8519L28.4751 76.8526C31.537 77.8732 32.1865 80.0015 32.1246 81.0546L32.1237 81.0692V81.0839V87.8224C32.1237 88.5318 31.5502 89.1294 30.8167 89.1294Z" fill="white" stroke="black"/>
<path d="M78.5718 57.3948L78.5717 57.3949C79.71 58.5739 80.3308 60.0515 80.3308 61.6196C80.3308 63.1703 79.581 64.7222 78.4151 65.8883L78.4088 65.8945L78.4088 65.8944C77.2383 67.0246 75.7215 67.6942 74.2115 67.6534C72.6086 67.6314 71.0965 66.8639 69.9961 65.7384C68.8953 64.6122 68.1671 63.0872 68.1879 61.5004C68.1879 61.5003 68.1879 61.5002 68.188 61.5002L68.6879 61.5068C68.7256 58.5706 71.2854 56.0482 74.2969 56.0481L78.5718 57.3948ZM78.5718 57.3948L78.5656 57.3886C77.4291 56.2521 75.913 55.5482 74.2971 55.5481L78.5718 57.3948ZM82.9448 61.6495L82.9447 61.6495V61.6573C82.9447 63.8793 81.9563 66.0876 80.2359 67.7731C78.5886 69.3477 76.4141 70.2674 74.2969 70.2674H74.1502C69.4936 70.194 65.4651 66.053 65.5361 61.4391L65.5361 61.4389C65.6073 56.7088 69.522 52.8965 74.2593 52.8965H74.3306C76.606 52.9331 78.7755 53.8573 80.4146 55.5321L80.4146 55.5321L80.4184 55.5359C82.095 57.2126 82.9802 59.3798 82.9448 61.6495Z" fill="white" stroke="black"/>
<path d="M88.5643 89.1294H88.541C87.8119 89.1179 87.2568 88.5552 87.2568 87.8226V80.8205V80.7589L87.2418 80.6992C87.2073 80.561 87.1268 80.4364 87.0514 80.341C86.967 80.2342 86.8543 80.1208 86.7115 80.0065C86.425 79.7773 86.0055 79.5353 85.414 79.3313L85.4121 79.3307L85.251 79.804L85.4121 79.3307L85.4119 79.3307L85.4114 79.3305L85.4095 79.3298L85.4018 79.3272L85.3717 79.317L85.2558 79.2776L84.8273 79.1322C84.4641 79.0092 83.9591 78.8385 83.3916 78.6477C82.2574 78.2665 80.8711 77.8044 79.8698 77.4833L79.5793 77.3901L79.3636 77.6058L74.3716 82.5978L69.3796 77.6058L69.1638 77.3901L68.8733 77.4833C67.8721 77.8044 66.4858 78.2665 65.3516 78.6478C64.7841 78.8385 64.279 79.0092 63.9158 79.1322L63.4873 79.2776L63.3714 79.317L63.3413 79.3272L63.3337 79.3298L63.3325 79.3302C62.1333 79.7303 61.5689 80.3581 61.4914 80.9003L61.4864 80.9355V80.971V87.8224C61.4864 88.525 60.882 89.1294 60.1794 89.1294C59.4699 89.1294 58.8724 88.5559 58.8724 87.8224V81.0839V81.0766L58.8722 81.0693C58.8407 79.9956 59.4684 77.8701 62.521 76.8526L62.521 76.8526L62.524 76.8515L62.3629 76.3782L62.5241 76.8515L62.5243 76.8515L62.525 76.8512L62.5279 76.8502L62.5393 76.8464L62.5839 76.8312L62.7545 76.7732L63.3736 76.5629C63.8916 76.3871 64.596 76.1484 65.3415 75.8967C66.8355 75.3924 68.4859 74.8393 69.1384 74.6342L69.1384 74.6342L69.1415 74.6332L69.9049 74.3878L74.0182 78.5011L74.3733 78.8562L74.7268 78.4995L78.8025 74.3883L79.5645 74.6332L79.5676 74.6342C80.2207 74.8394 81.881 75.3928 83.3843 75.897C84.1345 76.1487 84.8436 76.3874 85.3652 76.5632L85.9886 76.7735L86.1604 76.8315L86.2053 76.8467L86.2168 76.8506L86.2197 76.8516L86.2204 76.8518L86.2206 76.8519L86.3808 76.3782L86.2206 76.8519L86.2226 76.8526C89.2846 77.8732 89.9341 80.0015 89.8721 81.0546L89.8713 81.0692V81.0839V87.8224C89.8713 88.5318 89.2978 89.1294 88.5643 89.1294Z" fill="white" stroke="black"/>
<path d="M25.3958 37.5276C25.9981 36.8124 26.6381 36.0971 27.3157 35.4572C27.6168 35.1937 27.6168 34.7043 27.3533 34.4408C27.0898 34.1396 26.6004 34.1396 26.3369 34.4031C25.6217 35.0807 24.944 35.8337 24.3041 36.5866C24.0406 36.8878 24.0783 37.3396 24.3794 37.6031C24.53 37.716 24.6806 37.7536 24.8312 37.7536C25.0571 37.7913 25.2452 37.7159 25.3958 37.5276Z" fill="#6D95FC"/>
<path d="M18.9198 50.8552C19.2586 50.8552 19.5974 50.5917 19.635 50.2529C19.7856 49.3117 19.9738 48.4082 20.2373 47.5047C20.3503 47.1283 20.1244 46.7142 19.7103 46.6012C19.3338 46.4883 18.9197 46.7142 18.8068 47.1283C18.5433 48.0694 18.3551 49.0481 18.2045 50.0645C18.1292 50.4786 18.4304 50.8174 18.8068 50.8927C18.8445 50.8551 18.8821 50.8552 18.9198 50.8552Z" fill="#6D95FC"/>
<path d="M20.9902 43.9276C21.2537 43.9276 21.5172 43.777 21.6678 43.5135C22.0442 42.6477 22.496 41.8195 22.9854 40.9913C23.1736 40.6525 23.0607 40.2008 22.7219 40.0125C22.3831 39.8243 21.9313 39.9373 21.7431 40.2761C21.2537 41.1419 20.7643 42.0077 20.3502 42.9112C20.1996 43.2876 20.3502 43.7017 20.7266 43.8899C20.8019 43.8899 20.8772 43.9276 20.9902 43.9276Z" fill="#6D95FC"/>
<path d="M55.9628 77.6386L55.6993 77.7516C55.3228 77.9022 55.1723 78.3539 55.3228 78.6927C55.4358 78.9562 55.6993 79.1445 56.0005 79.1445C56.1134 79.1445 56.1887 79.1068 56.3016 79.0692L56.6028 78.9562C56.9792 78.8057 57.1298 78.3539 56.9792 77.9775C56.7534 77.601 56.3392 77.4504 55.9628 77.6386Z" fill="#6D95FC"/>
<path d="M35.0706 77.752C34.6942 77.6015 34.2801 77.752 34.1295 78.1285C33.9789 78.5049 34.1295 78.9191 34.5059 79.0696C35.4094 79.4461 36.3506 79.8225 37.2918 80.0861C37.3671 80.1237 37.4424 80.1237 37.5177 80.1237C37.8188 80.1237 38.12 79.9355 38.1953 79.5967C38.3082 79.2202 38.0823 78.8061 37.7059 78.6932C36.84 78.4297 35.9364 78.1285 35.0706 77.752Z" fill="#6D95FC"/>
<path d="M51.6726 79.1069C50.7691 79.3327 49.8279 79.521 48.8867 79.6339C48.4726 79.6716 48.2091 80.048 48.2467 80.4621C48.2844 80.8386 48.6232 81.1021 48.962 81.1021H49.0749C50.0537 80.9515 51.0325 80.7633 52.0112 80.5374C52.3876 80.4245 52.6512 80.048 52.5382 79.6716C52.4629 79.2198 52.0488 78.994 51.6724 79.1069L51.6726 79.1069Z" fill="#6D95FC"/>
<path d="M41.8464 79.6354C41.4323 79.5978 41.0935 79.8613 41.0182 80.2754C40.9806 80.6895 41.2441 81.0283 41.6582 81.1036C42.637 81.2165 43.6158 81.3295 44.6321 81.3295H44.6698C45.0462 81.3295 45.385 81.0283 45.385 80.6142C45.385 80.2001 45.0839 79.8613 44.6698 79.8613C43.7286 79.8236 42.7874 79.7483 41.8464 79.6354Z" fill="#6D95FC"/>
<path d="M69.1762 43.6268C69.2892 43.8903 69.5527 44.0409 69.8538 44.0409C69.9668 44.0409 70.0421 44.0032 70.155 43.9656C70.5315 43.815 70.682 43.3633 70.5315 43.0244C70.1174 42.121 69.6656 41.2175 69.1762 40.3893C68.988 40.0505 68.5362 39.9376 68.1974 40.1258C67.8586 40.3141 67.7457 40.7658 67.9339 41.1046C68.3857 41.9328 68.7998 42.761 69.1762 43.6268Z" fill="#6D95FC"/>
<path d="M71.849 50.4221H71.962C72.3761 50.3468 72.6396 49.9704 72.5643 49.5939C72.4137 48.6528 72.2255 47.7116 71.9996 46.8081C71.8867 46.4316 71.5102 46.2057 71.0961 46.281C70.7197 46.394 70.4938 46.7704 70.5691 47.1845C70.795 48.0504 70.9832 48.9161 71.1338 49.8196C71.2091 50.1584 71.5102 50.4219 71.849 50.4219L71.849 50.4221Z" fill="#6D95FC"/>
<path d="M64.5847 34.516C64.2835 34.2525 63.8317 34.2525 63.5682 34.516C63.3047 34.8172 63.3047 35.2689 63.5682 35.5324C64.2459 36.1724 64.8858 36.8876 65.4881 37.6029C65.6387 37.7911 65.8269 37.8664 66.0528 37.8664C66.2034 37.8664 66.3916 37.8287 66.5045 37.7158C66.8057 37.4523 66.8433 37.0005 66.6175 36.6994C65.9775 35.9465 65.2998 35.2313 64.5847 34.516Z" fill="#6D95FC"/>
</svg>
