<svg width="101" height="97" viewBox="0 0 101 97" fill="none" xmlns="http://www.w3.org/2000/svg">
<path d="M48.7699 31.1867C48.3397 31.1867 47.9095 31.0783 47.5175 30.8614C47.5175 30.8614 47.5175 30.8614 47.5175 30.8614L48.7699 31.1867ZM48.7699 31.1867C49.2002 31.1867 49.6304 31.0781 50.0224 30.8612L53.6579 28.8506C54.4423 28.4169 54.9113 27.6394 54.9113 26.7707C54.9113 25.9019 54.4423 25.1245 53.6579 24.6907L50.0224 22.6801C50.0224 22.6801 50.0224 22.6801 50.0224 22.6801L48.7699 31.1867ZM48.5967 24.4747L48.5968 24.4747C48.6354 24.4534 48.6966 24.4281 48.771 24.4281C48.8226 24.4281 48.8809 24.4401 48.9432 24.4749L48.9433 24.4749L52.5789 26.4855L52.5789 26.4855C52.7293 26.5686 52.7514 26.6997 52.7514 26.7711C52.7514 26.8424 52.7293 26.9735 52.5789 27.0566L52.5789 27.0566L48.9431 29.0672L48.9431 29.0672C48.7929 29.1505 48.6623 29.1032 48.5967 29.0672L48.5967 29.0671C48.5313 29.0312 48.4244 28.947 48.4244 28.7816V24.7603C48.4244 24.5951 48.5313 24.5109 48.5967 24.4747Z" fill="#6D95FC" stroke="white" stroke-width="0.05"/>
<path d="M39.9164 26.7716C39.9164 32.4098 44.7047 36.9949 50.588 36.9949C56.4712 36.9949 61.2595 32.4098 61.2595 26.7716C61.2595 21.1334 56.4712 16.5482 50.588 16.5482C44.7047 16.5482 39.9164 21.1334 39.9164 26.7716ZM42.0765 26.7716C42.0765 22.2775 45.8938 18.6195 50.588 18.6195C55.2823 18.6195 59.0993 22.2775 59.0993 26.7716C59.0993 31.2656 55.2823 34.9237 50.588 34.9237C45.8938 34.9237 42.0765 31.2656 42.0765 26.7716Z" fill="#6D95FC" stroke="white" stroke-width="0.05"/>
<path d="M17.8807 52.5676H83.2946C83.8902 52.5676 84.3747 52.105 84.3747 51.5319V2.01064C84.3747 1.43776 83.8902 0.975 83.2946 0.975H17.8807C17.2854 0.975 16.8007 1.43775 16.8007 2.01064V51.5319C16.8007 52.105 17.2854 52.5676 17.8807 52.5676ZM82.2145 3.04628V50.4963H18.9608V3.04628H82.2145Z" fill="#6D95FC" stroke="white" stroke-width="0.05"/>
<path d="M24.2113 14.1629H32.6518C33.2472 14.1629 33.7319 13.7002 33.7319 13.1273V8.07411C33.7319 7.50123 33.2472 7.03848 32.6518 7.03848H24.2113C23.6159 7.03848 23.1312 7.50123 23.1312 8.07411V13.1273C23.1312 13.7002 23.6159 14.1629 24.2113 14.1629ZM31.5717 9.10975V12.0917H25.2914V9.10975H31.5717Z" fill="#6D95FC" stroke="white" stroke-width="0.05"/>
<path d="M38.9823 14.1629H47.4228C48.0182 14.1629 48.5029 13.7002 48.5029 13.1273V8.07411C48.5029 7.50123 48.0182 7.03848 47.4228 7.03848H38.9823C38.3869 7.03848 37.9022 7.50123 37.9022 8.07411V13.1273C37.9022 13.7002 38.3869 14.1629 38.9823 14.1629ZM46.3427 9.10975V12.0917H40.0624V9.10975H46.3427Z" fill="#6D95FC" stroke="white" stroke-width="0.05"/>
<path d="M8.31517 79.8556H92.8607C96.9069 79.8556 100.201 76.7019 100.201 72.8234V66.6923C100.201 66.1192 99.7164 65.6566 99.1208 65.6566H2.05506C1.45968 65.6566 0.975 66.1192 0.975 66.6923V72.8234C0.975 76.7019 4.26867 79.8556 8.31517 79.8556ZM3.13512 72.8234V67.7279H98.0407V72.8234C98.0407 75.558 95.7181 77.7843 92.8609 77.7843H8.31517C5.45776 77.7843 3.13512 75.558 3.13512 72.8234Z" fill="white" stroke="#6D95FC" stroke-width="0.05"/>
<path d="M2.05506 67.7274H99.1208C99.7164 67.7274 100.201 67.2648 100.201 66.6918V21.5162C100.201 16.8761 96.2602 13.1029 91.4188 13.1029H83.2948C82.6992 13.1029 82.2148 13.5657 82.2148 14.1386C82.2148 14.7114 82.6992 15.1742 83.2948 15.1742H91.4188C95.0711 15.1742 98.0407 18.0203 98.0407 21.5162V65.6561H3.13512V21.5162C3.13512 18.0203 6.10472 15.1742 9.75701 15.1742H17.881C18.4764 15.1742 18.9611 14.7115 18.9611 14.1386C18.9611 13.5657 18.4764 13.1029 17.881 13.1029H9.75701C4.91564 13.1029 0.975 16.8761 0.975 21.5162V66.6918C0.975 67.2648 1.45968 67.7274 2.05506 67.7274Z" fill="white" stroke="#6D95FC" stroke-width="0.05"/>
<path d="M53.7533 14.1629H62.1938C62.7894 14.1629 63.2739 13.7002 63.2739 13.1273V8.07411C63.2739 7.50123 62.7894 7.03848 62.1938 7.03848H53.7533C53.1577 7.03848 52.6732 7.50123 52.6732 8.07411V13.1273C52.6732 13.7002 53.1577 14.1629 53.7533 14.1629ZM61.1137 9.10975V12.0917H54.8334V9.10975H61.1137Z" fill="#6D95FC" stroke="white" stroke-width="0.05"/>
<path d="M76.9643 14.1379H68.5238C67.941 14.1379 67.4688 13.6854 67.4688 13.1273V8.07411C67.4688 7.51604 67.941 7.06348 68.5238 7.06348H76.9643C77.5471 7.06348 78.0194 7.51604 78.0194 8.07411V13.1273C78.0194 13.6854 77.5471 14.1379 76.9643 14.1379ZM69.5789 12.1167H75.9092V9.08475H69.5789V12.1167Z" fill="#6D95FC" stroke="#6D95FC" stroke-width="0.05"/>
<path d="M32.6518 46.4788H24.2113C23.6287 46.4788 23.1562 46.0262 23.1562 45.4681V40.4149C23.1562 39.8569 23.6287 39.4043 24.2113 39.4043H32.6518C33.2344 39.4043 33.7069 39.8569 33.7069 40.4149V45.4681C33.7069 46.0262 33.2344 46.4788 32.6518 46.4788ZM25.2664 44.4575H31.5967V41.4256H25.2664V44.4575Z" fill="#6D95FC" stroke="#6D95FC" stroke-width="0.05"/>
<path d="M47.4228 46.4788H38.9823C38.3997 46.4788 37.9272 46.0262 37.9272 45.4681V40.4149C37.9272 39.8569 38.3997 39.4043 38.9823 39.4043H47.4228C48.0054 39.4043 48.4779 39.8569 48.4779 40.4149V45.4681C48.4779 46.0262 48.0054 46.4788 47.4228 46.4788ZM40.0374 44.4575H46.3677V41.4256H40.0374V44.4575Z" fill="#6D95FC" stroke="#6D95FC" stroke-width="0.05"/>
<path d="M62.1938 46.4788H53.7533C53.1705 46.4788 52.6982 46.0262 52.6982 45.4681V40.4149C52.6982 39.8569 53.1705 39.4043 53.7533 39.4043H62.1938C62.7766 39.4043 63.2489 39.8569 63.2489 40.4149V45.4681C63.2489 46.0262 62.7766 46.4788 62.1938 46.4788ZM54.8084 44.4575H61.1387V41.4256H54.8084V44.4575Z" fill="#6D95FC" stroke="#6D95FC" stroke-width="0.05"/>
<path d="M76.9643 46.4788H68.5238C67.941 46.4788 67.4688 46.0262 67.4688 45.4681V40.4149C67.4688 39.8569 67.941 39.4043 68.5238 39.4043H76.9643C77.5471 39.4043 78.0194 39.8569 78.0194 40.4149V45.4681C78.0194 46.0262 77.5471 46.4788 76.9643 46.4788ZM69.5789 44.4575H75.9092V41.4256H69.5789V44.4575Z" fill="#6D95FC" stroke="#6D95FC" stroke-width="0.05"/>
<path d="M38.9823 91.9825H62.1937C62.7893 91.9825 63.2737 91.52 63.2737 90.9469V78.8192C63.2737 78.2461 62.7893 77.7836 62.1937 77.7836H38.9823C38.3869 77.7836 37.9022 78.2461 37.9022 78.8192V90.9469C37.9022 91.52 38.3869 91.9825 38.9823 91.9825ZM61.1136 79.8549V89.9113H40.0624V79.8549H61.1136Z" fill="white" stroke="#6D95FC" stroke-width="0.05"/>
<path d="M44.2577 91.9825H56.9184C57.514 91.9825 57.9985 91.52 57.9985 90.9469V78.8192C57.9985 78.2461 57.514 77.7836 56.9184 77.7836H44.2577C43.6623 77.7836 43.1776 78.2461 43.1776 78.8192V90.9469C43.1776 91.52 43.6623 91.9825 44.2577 91.9825ZM55.8384 79.8549V89.9113H45.3378V79.8549H55.8384Z" fill="white" stroke="#6D95FC" stroke-width="0.05"/>
<path d="M35.817 96.0254H65.3588C67.1168 96.0254 68.549 94.655 68.549 92.9684C68.549 91.2818 67.1168 89.9115 65.3588 89.9115H35.817C34.059 89.9115 32.6269 91.2818 32.6269 92.9684C32.6269 94.655 34.059 96.0254 35.817 96.0254ZM34.787 92.9684C34.787 92.426 35.2481 91.9828 35.817 91.9828H65.3588C65.9278 91.9828 66.3888 92.426 66.3888 92.9684C66.3888 93.5109 65.9278 93.9541 65.3588 93.9541H35.817C35.2481 93.9541 34.787 93.5109 34.787 92.9684Z" fill="white" stroke="#6D95FC" stroke-width="0.05"/>
</svg>
