<svg width="90" height="94" viewBox="0 0 90 94" fill="none" xmlns="http://www.w3.org/2000/svg">
<g clip-path="url(#clip0_5_3728)">
<path d="M18.3569 74.2906C18.3569 68.6954 22.7129 64.1777 28.0182 64.1777C33.3235 64.1777 37.6795 68.6954 37.6795 74.2906C37.6795 79.8859 33.3235 84.4035 28.0182 84.4035C22.7129 84.4035 18.3569 79.8859 18.3569 74.2906ZM20.2602 74.2906C20.2602 78.7262 23.7195 82.3713 28.0182 82.3713C32.3169 82.3713 35.7763 78.7262 35.7763 74.2906C35.7763 69.855 32.3169 66.21 28.0182 66.21C23.7195 66.21 20.2602 69.855 20.2602 74.2906Z" fill="#6D95FC" stroke="black"/>
<path d="M24.1631 74.2906C24.1631 72.0382 25.9133 70.2422 28.0179 70.2422C30.1226 70.2422 31.8728 72.0382 31.8728 74.2906C31.8728 76.5429 30.1226 78.339 28.0179 78.339C25.9133 78.339 24.1631 76.5429 24.1631 74.2906ZM26.0663 74.2906C26.0663 75.3826 26.9205 76.3067 28.0179 76.3067C29.1153 76.3067 29.9695 75.3826 29.9695 74.2906C29.9695 73.1986 29.1153 72.2744 28.0179 72.2744C26.9205 72.2744 26.0663 73.1986 26.0663 74.2906Z" fill="#6D95FC" stroke="black"/>
<mask id="path-4-inside-1_5_3728" fill="white">
<path d="M88.1365 70.8214L77.6369 66.7097H75.9209V54.0501C79.2984 52.7979 81.7273 49.4367 81.7273 45.4839V43.1643C81.7273 41.3342 82.5445 39.5952 83.9689 38.3911C88.0794 34.9162 90.437 29.7662 90.437 24.2581C90.437 19.0883 88.3191 14.144 84.626 10.6949C82.1654 8.39502 79.1365 6.92152 75.9209 6.34955V4.54839C75.9209 2.04062 73.9671 0 71.566 0H4.79185C2.3908 0 0.437012 2.04062 0.437012 4.54839V71.258C0.437012 73.7658 2.3908 75.8064 4.79185 75.8064H9.20757C9.47457 77.5012 10.6171 78.9253 12.2183 79.4742C12.6583 79.6259 12.9992 79.9534 13.1573 80.3792C13.2325 80.5795 13.3083 80.7765 13.3913 80.9721C13.5623 81.3843 13.5423 81.8683 13.3362 82.296C12.4639 84.0972 12.7964 86.265 14.1624 87.6952L15.1857 88.7653C16.5518 90.1907 18.6274 90.5378 20.3531 89.6262C20.7627 89.411 21.2267 89.39 21.6233 89.57C21.8093 89.6546 21.9978 89.7338 22.191 89.8123C22.596 89.9775 22.9109 90.3355 23.0561 90.7931C23.6568 92.7112 25.3612 94 27.2943 94H28.7401C30.6738 94 32.3776 92.7099 32.9803 90.7931C33.1254 90.3335 33.4391 89.9775 33.8467 89.8123C34.0385 89.7338 34.2271 89.6546 34.4144 89.568C34.811 89.3907 35.2711 89.4103 35.682 89.6255C37.4065 90.5352 39.484 90.188 40.8514 88.7625L41.8759 87.6938C43.2407 86.2656 43.5731 84.0956 42.7002 82.2967C42.6348 82.16 42.6205 82.0145 42.5927 81.8723H77.6371L88.1366 77.7592C89.5118 77.2177 90.4365 75.8248 90.4365 74.2903C90.4365 72.7558 89.5117 71.3629 88.136 70.8214L88.1365 70.8214ZM46.8277 72.7742C46.6333 71.5416 45.9743 70.456 45.0131 69.7419H75.92V72.7742H46.8277ZM46.8277 75.8064H75.9214V78.8387H45.0145C45.9768 78.1246 46.6358 77.0389 46.829 75.8064H46.8277ZM73.0181 51.5484C69.8161 51.5484 67.2117 48.8282 67.2117 45.4839H78.8246C78.8246 48.8282 76.2201 51.5484 73.0181 51.5484ZM72.0525 28.8064H73.9831L73.1108 42.4516H72.9236L72.0525 28.8064ZM87.5342 24.2581C87.5342 28.8458 85.5686 33.1382 82.1432 36.0338C80.2179 37.6609 79.054 39.9697 78.8633 42.4516H76.021L76.892 28.8064H78.8244C81.2254 28.8064 83.1792 26.7658 83.1792 24.2581C83.1792 21.7503 81.2254 19.7097 78.8244 19.7097H78.6371C76.3522 19.7097 74.4417 21.5744 74.2925 23.9562L74.1765 25.7742H71.8598L71.7438 23.9576C71.5941 21.5744 69.6836 19.7097 67.3987 19.7097H67.2114C64.8104 19.7097 62.8566 21.7503 62.8566 24.2581C62.8566 26.7658 64.8104 28.8064 67.2114 28.8064H69.1433L70.0143 42.4516H67.1706C66.9749 39.9804 65.789 37.6528 63.8306 35.979C59.8069 32.5406 57.8803 27.2525 58.6819 21.835C59.6546 15.2521 64.9776 9.9361 71.3415 9.19502C71.9092 9.12869 72.4762 9.09687 73.0381 9.09687C76.6179 9.09687 79.9956 10.4357 82.6914 12.9543C85.769 15.8288 87.5342 19.9493 87.5342 24.2581ZM77.0871 25.7742L77.1901 24.1565C77.2394 23.3633 77.8764 22.7419 78.6372 22.7419H78.8245C79.6255 22.7419 80.2761 23.4215 80.2761 24.2581C80.2761 25.0946 79.6255 25.7742 78.8245 25.7742H77.0871ZM68.9489 25.7742H67.2115C66.4105 25.7742 65.7598 25.0946 65.7598 24.2581C65.7598 23.4215 66.4105 22.7419 67.2115 22.7419H67.3987C68.1595 22.7419 68.7966 23.3633 68.8458 24.1579L68.9489 25.7742ZM38.1797 24.2581H33.8249C32.3383 24.2581 31.0247 25.0432 30.2393 26.2337C29.0145 25.0174 27.3678 24.2581 25.5494 24.2581H25.1528C23.9163 24.2581 22.7024 24.608 21.641 25.274L14.9538 29.4644V32.5677L21.2845 37.856C22.4892 38.8645 24.0044 39.4195 25.5493 39.4195C27.3683 39.4195 29.0144 38.66 30.2392 37.4438C31.0246 38.6344 32.3382 39.4195 33.8248 39.4195H38.1796V42.4517H9.14737V21.2259H38.1796L38.1797 24.2581ZM25.5494 36.3871C24.6622 36.3871 23.7912 36.069 23.099 35.4882L17.9049 31.1504L23.1334 27.8738C23.7445 27.4921 24.4418 27.2904 25.1514 27.2904H25.548C27.7105 27.2904 29.47 29.1279 29.47 31.3853V32.2923C29.47 34.5495 27.7107 36.3871 25.5494 36.3871ZM33.8249 36.3871C33.0239 36.3871 32.3733 35.7075 32.3733 34.871V28.8064C32.3733 27.9699 33.0239 27.2903 33.8249 27.2903H55.8761C56.4179 30.6698 57.8442 33.8111 60.0695 36.3871H33.8249ZM4.79263 3.03226H71.5668C72.3678 3.03226 73.0184 3.71181 73.0184 4.54839V6.07534C72.3535 6.07399 71.686 6.10445 71.0178 6.18161C66.7504 6.67841 62.8732 8.89366 60.077 12.129H38.18V6.06448H29.4704V12.129H26.5671V6.06448H17.8575V12.129H14.9542V6.06448H6.24457V12.129H3.34135V4.54835C3.34135 3.71177 3.99199 3.03222 4.79296 3.03222L4.79263 3.03226ZM35.2765 12.129H32.3733V9.09677H35.2765V12.129ZM23.6636 12.129H20.7604V9.09677H23.6636V12.129ZM12.0507 12.129H9.14746V9.09677H12.0507V12.129ZM3.34102 71.258V15.1613H57.9598C56.8944 17.0565 56.1427 19.15 55.8141 21.3746C55.6702 22.3432 55.6242 23.3051 55.6242 24.2581H41.0835V18.1935H6.24482V45.4839H41.0835V39.4193H63.0153C63.8454 40.5199 64.3101 41.8282 64.3101 43.1731V45.4839C64.3101 50.5006 68.2165 54.5806 73.0198 54.5806V66.7097H42.594C42.6218 66.5668 42.6361 66.4213 42.7015 66.2866C43.5738 64.4855 43.2414 62.3177 41.8753 60.8875L40.852 59.8187C39.4872 58.3906 37.409 58.0399 35.6846 58.9558C35.277 59.1723 34.8124 59.194 34.4145 59.0119C34.2285 58.9273 34.0399 58.8481 33.8468 58.7696C33.4418 58.6045 33.1268 58.2464 32.9817 57.7889C32.3803 55.8694 30.676 54.5806 28.7428 54.5806H27.297C25.3633 54.5806 23.6595 55.8706 23.0568 57.7875C22.9116 58.2471 22.598 58.6031 22.1904 58.7682C21.9986 58.8468 21.81 58.926 21.6227 59.0126C21.2261 59.1899 20.766 59.1703 20.3551 58.9551C18.6306 58.0454 16.5531 58.3926 15.1857 59.818L14.1612 60.8868C12.7964 62.3149 12.464 64.4849 13.3368 66.2839C13.5442 66.713 13.563 67.1962 13.3906 67.6105C13.3096 67.8047 13.2338 68.0017 13.1586 68.2034C13.0005 68.6264 12.6577 68.9553 12.2196 69.107C10.6177 69.6552 9.47516 71.0793 9.20939 72.7741H4.79367C3.99269 72.7741 3.34205 72.0945 3.34205 71.2579L3.34102 71.258ZM40.1738 79.2765C40.1129 79.4403 40.0474 79.6028 39.982 79.7618C39.4655 81.0039 39.5115 82.4259 40.1084 83.6611C40.4129 84.2906 40.2969 85.0487 39.8206 85.5476L38.7974 86.615C38.3198 87.1138 37.5953 87.2349 36.9899 86.9168C35.8098 86.2934 34.447 86.2454 33.2592 86.7835C33.1056 86.8532 32.9501 86.9216 32.7945 86.9852C31.5769 87.4793 30.6405 88.5243 30.2238 89.8476C30.0125 90.5177 29.417 90.9678 28.741 90.9678H27.2953C26.6187 90.9678 26.0238 90.5177 25.8132 89.8456C25.3965 88.5237 24.4588 87.4808 23.2424 86.9859C23.0856 86.9223 22.9301 86.8539 22.7778 86.7856C22.2289 86.5372 21.6444 86.4127 21.0559 86.4127C20.369 86.4127 19.6814 86.5812 19.0424 86.9176C18.4397 87.2357 17.7139 87.1145 17.2363 86.6171L16.2143 85.5483C15.7367 85.0495 15.6207 84.2914 15.9253 83.6605C16.5221 82.4266 16.5681 81.0046 16.053 79.764C15.9862 79.6036 15.9208 79.4411 15.8598 79.2787C15.3868 78.0069 14.3862 77.0289 13.1192 76.5937C12.4809 76.3737 12.0499 75.7517 12.0499 75.0457V73.5357C12.0499 72.8291 12.4809 72.2077 13.1244 71.9878C14.39 71.5525 15.3886 70.5731 15.8624 69.3027C15.9233 69.1389 15.9887 68.9765 16.0542 68.8174C16.5707 67.5754 16.5247 66.1534 15.9278 64.9181C15.6232 64.2887 15.7392 63.5306 16.2155 63.0317L17.2388 61.963C17.7164 61.4655 18.4422 61.3457 19.0463 61.6624C20.2277 62.2858 21.5925 62.3359 22.777 61.7958C22.9306 61.7261 23.0861 61.6577 23.2416 61.5941C24.4593 61.1 25.3957 60.0549 25.8124 58.7316C26.023 58.0629 26.6186 57.6128 27.2945 57.6128H28.7403C29.4168 57.6128 30.0117 58.0629 30.2223 58.735C30.639 60.0569 31.5767 61.0998 32.7931 61.5947C32.9499 61.6583 33.1054 61.7267 33.2577 61.795C34.4482 62.3345 35.8084 62.2864 36.9911 61.6631C37.5964 61.3429 38.3209 61.4674 38.7973 61.9636L39.8192 63.0323C40.2968 63.5312 40.4128 64.2892 40.1083 64.9201C39.5114 66.154 39.4654 67.576 39.9806 68.8167C40.0473 68.9771 40.1128 69.1395 40.1737 69.302C40.6468 70.5737 41.6474 71.5517 42.9144 71.987C43.5546 72.2069 43.9856 72.829 43.9856 73.5349V75.0449C43.9856 75.7516 43.5546 76.3729 42.9111 76.5929C41.6455 77.0281 40.647 78.0061 40.1738 79.2765ZM87.1165 74.9196L78.8249 78.1671V70.4139L87.1165 73.6599C87.366 73.7581 87.5345 74.0112 87.5345 74.2901C87.5345 74.5689 87.366 74.8222 87.1165 74.9196Z"/>
</mask>
<path d="M88.1365 70.8214L77.6369 66.7097H75.9209V54.0501C79.2984 52.7979 81.7273 49.4367 81.7273 45.4839V43.1643C81.7273 41.3342 82.5445 39.5952 83.9689 38.3911C88.0794 34.9162 90.437 29.7662 90.437 24.2581C90.437 19.0883 88.3191 14.144 84.626 10.6949C82.1654 8.39502 79.1365 6.92152 75.9209 6.34955V4.54839C75.9209 2.04062 73.9671 0 71.566 0H4.79185C2.3908 0 0.437012 2.04062 0.437012 4.54839V71.258C0.437012 73.7658 2.3908 75.8064 4.79185 75.8064H9.20757C9.47457 77.5012 10.6171 78.9253 12.2183 79.4742C12.6583 79.6259 12.9992 79.9534 13.1573 80.3792C13.2325 80.5795 13.3083 80.7765 13.3913 80.9721C13.5623 81.3843 13.5423 81.8683 13.3362 82.296C12.4639 84.0972 12.7964 86.265 14.1624 87.6952L15.1857 88.7653C16.5518 90.1907 18.6274 90.5378 20.3531 89.6262C20.7627 89.411 21.2267 89.39 21.6233 89.57C21.8093 89.6546 21.9978 89.7338 22.191 89.8123C22.596 89.9775 22.9109 90.3355 23.0561 90.7931C23.6568 92.7112 25.3612 94 27.2943 94H28.7401C30.6738 94 32.3776 92.7099 32.9803 90.7931C33.1254 90.3335 33.4391 89.9775 33.8467 89.8123C34.0385 89.7338 34.2271 89.6546 34.4144 89.568C34.811 89.3907 35.2711 89.4103 35.682 89.6255C37.4065 90.5352 39.484 90.188 40.8514 88.7625L41.8759 87.6938C43.2407 86.2656 43.5731 84.0956 42.7002 82.2967C42.6348 82.16 42.6205 82.0145 42.5927 81.8723H77.6371L88.1366 77.7592C89.5118 77.2177 90.4365 75.8248 90.4365 74.2903C90.4365 72.7558 89.5117 71.3629 88.136 70.8214L88.1365 70.8214ZM46.8277 72.7742C46.6333 71.5416 45.9743 70.456 45.0131 69.7419H75.92V72.7742H46.8277ZM46.8277 75.8064H75.9214V78.8387H45.0145C45.9768 78.1246 46.6358 77.0389 46.829 75.8064H46.8277ZM73.0181 51.5484C69.8161 51.5484 67.2117 48.8282 67.2117 45.4839H78.8246C78.8246 48.8282 76.2201 51.5484 73.0181 51.5484ZM72.0525 28.8064H73.9831L73.1108 42.4516H72.9236L72.0525 28.8064ZM87.5342 24.2581C87.5342 28.8458 85.5686 33.1382 82.1432 36.0338C80.2179 37.6609 79.054 39.9697 78.8633 42.4516H76.021L76.892 28.8064H78.8244C81.2254 28.8064 83.1792 26.7658 83.1792 24.2581C83.1792 21.7503 81.2254 19.7097 78.8244 19.7097H78.6371C76.3522 19.7097 74.4417 21.5744 74.2925 23.9562L74.1765 25.7742H71.8598L71.7438 23.9576C71.5941 21.5744 69.6836 19.7097 67.3987 19.7097H67.2114C64.8104 19.7097 62.8566 21.7503 62.8566 24.2581C62.8566 26.7658 64.8104 28.8064 67.2114 28.8064H69.1433L70.0143 42.4516H67.1706C66.9749 39.9804 65.789 37.6528 63.8306 35.979C59.8069 32.5406 57.8803 27.2525 58.6819 21.835C59.6546 15.2521 64.9776 9.9361 71.3415 9.19502C71.9092 9.12869 72.4762 9.09687 73.0381 9.09687C76.6179 9.09687 79.9956 10.4357 82.6914 12.9543C85.769 15.8288 87.5342 19.9493 87.5342 24.2581ZM77.0871 25.7742L77.1901 24.1565C77.2394 23.3633 77.8764 22.7419 78.6372 22.7419H78.8245C79.6255 22.7419 80.2761 23.4215 80.2761 24.2581C80.2761 25.0946 79.6255 25.7742 78.8245 25.7742H77.0871ZM68.9489 25.7742H67.2115C66.4105 25.7742 65.7598 25.0946 65.7598 24.2581C65.7598 23.4215 66.4105 22.7419 67.2115 22.7419H67.3987C68.1595 22.7419 68.7966 23.3633 68.8458 24.1579L68.9489 25.7742ZM38.1797 24.2581H33.8249C32.3383 24.2581 31.0247 25.0432 30.2393 26.2337C29.0145 25.0174 27.3678 24.2581 25.5494 24.2581H25.1528C23.9163 24.2581 22.7024 24.608 21.641 25.274L14.9538 29.4644V32.5677L21.2845 37.856C22.4892 38.8645 24.0044 39.4195 25.5493 39.4195C27.3683 39.4195 29.0144 38.66 30.2392 37.4438C31.0246 38.6344 32.3382 39.4195 33.8248 39.4195H38.1796V42.4517H9.14737V21.2259H38.1796L38.1797 24.2581ZM25.5494 36.3871C24.6622 36.3871 23.7912 36.069 23.099 35.4882L17.9049 31.1504L23.1334 27.8738C23.7445 27.4921 24.4418 27.2904 25.1514 27.2904H25.548C27.7105 27.2904 29.47 29.1279 29.47 31.3853V32.2923C29.47 34.5495 27.7107 36.3871 25.5494 36.3871ZM33.8249 36.3871C33.0239 36.3871 32.3733 35.7075 32.3733 34.871V28.8064C32.3733 27.9699 33.0239 27.2903 33.8249 27.2903H55.8761C56.4179 30.6698 57.8442 33.8111 60.0695 36.3871H33.8249ZM4.79263 3.03226H71.5668C72.3678 3.03226 73.0184 3.71181 73.0184 4.54839V6.07534C72.3535 6.07399 71.686 6.10445 71.0178 6.18161C66.7504 6.67841 62.8732 8.89366 60.077 12.129H38.18V6.06448H29.4704V12.129H26.5671V6.06448H17.8575V12.129H14.9542V6.06448H6.24457V12.129H3.34135V4.54835C3.34135 3.71177 3.99199 3.03222 4.79296 3.03222L4.79263 3.03226ZM35.2765 12.129H32.3733V9.09677H35.2765V12.129ZM23.6636 12.129H20.7604V9.09677H23.6636V12.129ZM12.0507 12.129H9.14746V9.09677H12.0507V12.129ZM3.34102 71.258V15.1613H57.9598C56.8944 17.0565 56.1427 19.15 55.8141 21.3746C55.6702 22.3432 55.6242 23.3051 55.6242 24.2581H41.0835V18.1935H6.24482V45.4839H41.0835V39.4193H63.0153C63.8454 40.5199 64.3101 41.8282 64.3101 43.1731V45.4839C64.3101 50.5006 68.2165 54.5806 73.0198 54.5806V66.7097H42.594C42.6218 66.5668 42.6361 66.4213 42.7015 66.2866C43.5738 64.4855 43.2414 62.3177 41.8753 60.8875L40.852 59.8187C39.4872 58.3906 37.409 58.0399 35.6846 58.9558C35.277 59.1723 34.8124 59.194 34.4145 59.0119C34.2285 58.9273 34.0399 58.8481 33.8468 58.7696C33.4418 58.6045 33.1268 58.2464 32.9817 57.7889C32.3803 55.8694 30.676 54.5806 28.7428 54.5806H27.297C25.3633 54.5806 23.6595 55.8706 23.0568 57.7875C22.9116 58.2471 22.598 58.6031 22.1904 58.7682C21.9986 58.8468 21.81 58.926 21.6227 59.0126C21.2261 59.1899 20.766 59.1703 20.3551 58.9551C18.6306 58.0454 16.5531 58.3926 15.1857 59.818L14.1612 60.8868C12.7964 62.3149 12.464 64.4849 13.3368 66.2839C13.5442 66.713 13.563 67.1962 13.3906 67.6105C13.3096 67.8047 13.2338 68.0017 13.1586 68.2034C13.0005 68.6264 12.6577 68.9553 12.2196 69.107C10.6177 69.6552 9.47516 71.0793 9.20939 72.7741H4.79367C3.99269 72.7741 3.34205 72.0945 3.34205 71.2579L3.34102 71.258ZM40.1738 79.2765C40.1129 79.4403 40.0474 79.6028 39.982 79.7618C39.4655 81.0039 39.5115 82.4259 40.1084 83.6611C40.4129 84.2906 40.2969 85.0487 39.8206 85.5476L38.7974 86.615C38.3198 87.1138 37.5953 87.2349 36.9899 86.9168C35.8098 86.2934 34.447 86.2454 33.2592 86.7835C33.1056 86.8532 32.9501 86.9216 32.7945 86.9852C31.5769 87.4793 30.6405 88.5243 30.2238 89.8476C30.0125 90.5177 29.417 90.9678 28.741 90.9678H27.2953C26.6187 90.9678 26.0238 90.5177 25.8132 89.8456C25.3965 88.5237 24.4588 87.4808 23.2424 86.9859C23.0856 86.9223 22.9301 86.8539 22.7778 86.7856C22.2289 86.5372 21.6444 86.4127 21.0559 86.4127C20.369 86.4127 19.6814 86.5812 19.0424 86.9176C18.4397 87.2357 17.7139 87.1145 17.2363 86.6171L16.2143 85.5483C15.7367 85.0495 15.6207 84.2914 15.9253 83.6605C16.5221 82.4266 16.5681 81.0046 16.053 79.764C15.9862 79.6036 15.9208 79.4411 15.8598 79.2787C15.3868 78.0069 14.3862 77.0289 13.1192 76.5937C12.4809 76.3737 12.0499 75.7517 12.0499 75.0457V73.5357C12.0499 72.8291 12.4809 72.2077 13.1244 71.9878C14.39 71.5525 15.3886 70.5731 15.8624 69.3027C15.9233 69.1389 15.9887 68.9765 16.0542 68.8174C16.5707 67.5754 16.5247 66.1534 15.9278 64.9181C15.6232 64.2887 15.7392 63.5306 16.2155 63.0317L17.2388 61.963C17.7164 61.4655 18.4422 61.3457 19.0463 61.6624C20.2277 62.2858 21.5925 62.3359 22.777 61.7958C22.9306 61.7261 23.0861 61.6577 23.2416 61.5941C24.4593 61.1 25.3957 60.0549 25.8124 58.7316C26.023 58.0629 26.6186 57.6128 27.2945 57.6128H28.7403C29.4168 57.6128 30.0117 58.0629 30.2223 58.735C30.639 60.0569 31.5767 61.0998 32.7931 61.5947C32.9499 61.6583 33.1054 61.7267 33.2577 61.795C34.4482 62.3345 35.8084 62.2864 36.9911 61.6631C37.5964 61.3429 38.3209 61.4674 38.7973 61.9636L39.8192 63.0323C40.2968 63.5312 40.4128 64.2892 40.1083 64.9201C39.5114 66.154 39.4654 67.576 39.9806 68.8167C40.0473 68.9771 40.1128 69.1395 40.1737 69.302C40.6468 70.5737 41.6474 71.5517 42.9144 71.987C43.5546 72.2069 43.9856 72.829 43.9856 73.5349V75.0449C43.9856 75.7516 43.5546 76.3729 42.9111 76.5929C41.6455 77.0281 40.647 78.0061 40.1738 79.2765ZM87.1165 74.9196L78.8249 78.1671V70.4139L87.1165 73.6599C87.366 73.7581 87.5345 74.0112 87.5345 74.2901C87.5345 74.5689 87.366 74.8222 87.1165 74.9196Z" fill="white" stroke="black" stroke-width="2" mask="url(#path-4-inside-1_5_3728)"/>
<path d="M44.4858 42.9512H60.9052V44.9834H44.4858V42.9512Z" fill="#6D95FC" stroke="black"/>
<path d="M44.4858 49.0166H60.9052V51.0489H44.4858V49.0166Z" fill="#6D95FC" stroke="black"/>
<path d="M44.4858 55.0811H60.9052V57.1133H44.4858V55.0811Z" fill="#6D95FC" stroke="black"/>
<path d="M53.1953 61.1455H55.0985V63.1778H53.1953V61.1455Z" fill="#6D95FC" stroke="black"/>
<path d="M59.002 61.1455H60.9052V63.1778H59.002V61.1455Z" fill="#6D95FC" stroke="black"/>
<path d="M47.3892 61.1455H49.2924V63.1778H47.3892V61.1455Z" fill="#6D95FC" stroke="black"/>
</g>
<rect width="90" height="94" stroke="black"/>
<defs>
<clipPath id="clip0_5_3728">
<rect width="90" height="94" fill="white"/>
</clipPath>
</defs>
</svg>
